<?xml version="1.0" encoding="utf-8"?>
<!-- Generator: Adobe Illustrator 21.0.0, SVG Export Plug-In . SVG Version: 6.00 Build 0)  -->
<svg version="1.1" id="Слой_1" xmlns="http://www.w3.org/2000/svg" xmlns:xlink="http://www.w3.org/1999/xlink" x="0px" y="0px"
	 viewBox="0 0 1288.1 1288.1" style="enable-background:new 0 0 1288.1 1288.1;" xml:space="preserve">
<style type="text/css">
	.st0{fill:#FFFFFF;}
	.st1{fill:#181A3E;stroke:#C34435;stroke-width:20;stroke-miterlimit:10;}
	.st2{fill:#C34435;}
	.st3{clip-path:url(#SVGID_2_);}
	.st4{clip-path:url(#SVGID_4_);}
	.st5{fill:#181A3E;}
	.st6{fill:none;stroke:#181A3E;stroke-width:20;stroke-miterlimit:10;}
	.st7{enable-background:new    ;}
	.st8{fill:#FFFFFF;stroke:#181A3E;stroke-width:10;stroke-miterlimit:10;}
</style>
<symbol  id="Новый_символ_2" viewBox="-31.5 -31.5 62.9 62.9">
	<polygon class="st0" points="0,-1.6 31.5,0 0,1.6 -31.5,0 	"/>
	<polygon class="st0" points="-1.6,0 0,-31.5 1.6,0 0,31.5 	"/>
	<polygon class="st0" points="-1.1,-1.1 -16,16 1.1,1.1 16,-16 	"/>
	<polygon class="st0" points="-1.1,1.1 16,16 1.1,-1.1 -16,-16 	"/>
</symbol>
<title>red-blue outlined letters, stars and rays</title>
<circle class="st1" cx="644.7" cy="719.7" r="429.3"/>
<path class="st2" d="M644.5,150.9c0.3,0,5.7,0.1,5.7,8.7c0,1.4,0.8,9.4,1.4,10c17.8,23,51.7,74.4,51.7,143.9v111.1l6.2,14v6.5h-1.1
	v5l10.3,15.4c0,0,8.3,1.1,11.9,6.5s27.6,41.2,29,43s1.3,4.8,0,5.5c-0.9,0.5-1.8,1.1-2.7,1.8l11.2,14.6l3.4,22.3V633l-9.7,15.4v144
	l2.8,7.3h7.9c3.8,0,4.1,10-0.2,10h-2.7l8.5,10.5v7l36.8,36.8c4,4,10.3,17.4,10.3,33.3v30.7l-53.5,9.9v71.4l-9.1,12.4h-10
	c0,0,4.7,8.9,4.7,17.7h-63.1c-0.1-6.2,1.5-12.4,4.4-17.9H691c0-4.7,2.1-6.3,2.1-6.3l-0.8-0.6V987c0,0-2.1,12.7-12.3,18.1
	c0,0,5.2,12.7,6.5,21.4c1.2,8.7,1.3,12.5,2.8,12.5h-40.9c1.3,0,3.2-7.5,3.8-12.6c0.8-6.4,6.3-21.6,6.3-21.6
	c-4.9-2.1-8.7-6.3-10.1-11.5c0,0-1.2,48-2.5,48h-3.5c-1.3,0-2.5-48-2.5-48c-1.5,5.2-5.2,9.4-10.1,11.5c0,0,5.5,15.2,6.3,21.6
	c0.6,5.1,2.5,12.6,3.8,12.6h-40.8c1.5,0,1.6-3.8,2.8-12.5s6.5-21.4,6.5-21.4c-10.2-5.4-12.3-18.1-12.3-18.1v27.2l-0.8,0.6
	c0,0,2.1,1.6,2.1,6.3h-7.7c2.9,5.5,4.5,11.7,4.4,17.9h-63.1c0-8.7,4.7-17.7,4.7-17.7h-10l-9.1-12.4v-71.4l-53.5-9.9v-30.7
	c0-16,6.3-29.3,10.3-33.3l36.8-36.8v-7l8.5-10.5h-2.8c-4.3,0-4-10-0.2-10h7.9l2.8-7.3v-144l-9.6-15.3v-73.8l3.4-22.3l11.2-14.6
	c-0.9-0.6-1.8-1.2-2.7-1.8c-1.3-0.7-1.4-3.7,0-5.5s25.4-37.6,29-43s11.9-6.5,11.9-6.5l10.3-15.4v-5.1h-1.1v-6.5l6.2-14v-111
	c0-69.4,33.4-119.4,49.2-142.9c0,0-0.6-0.3-0.6-1.7s1.2-4,2.6-6.3s1.3-7.2,2.3-8.8c1.2-1.8,3.3-2.9,5.4-2.9L644.5,150.9
	 M639.8,1039.1L639.8,1039.1 M644.5,130.9h-0.9c-9.1,0-17.6,4.7-22.5,12.4c-2,3.4-3.2,7.2-3.7,11.1v0.1c-1.9,3.2-3.2,6.8-3.9,10.5
	c-11.1,16.4-20.6,33.8-28.5,51.9c-13.5,31.4-20.3,63.9-20.3,96.5v106.9l-4.5,10.1l-1.7,3.9v11.3l-1.8,2.7
	c-6.4,2.5-11.9,6.8-15.9,12.4l-5.5,8.1c-6.9,10.3-21.3,31.7-23.1,34.2c-3.6,4.9-5.3,11-4.8,17.1l-3.4,4.5l-3.1,4.1l-0.8,5.1
	l-3.4,22.3l-0.2,1.5v81.1l3.1,4.9l6.6,10.5v127.6c-4.6,2.2-8.3,5.8-10.6,10.2c-2,3.9-3,8.3-3,12.7c0,1.6,0.1,3.2,0.4,4.7l-3,3.6v5.7
	l-31,30.9c-7.8,7.8-16.2,26-16.2,47.5v47.4l16.4,3l37.1,6.8v61.3l3.9,5.3l9.1,12.4l1.6,2.1c-0.1,1.2-0.1,2.4-0.1,3.7v20H633
	c2.9,1.5,6,2.3,9.3,2.3h3.5c3.2,0,6.4-0.8,9.3-2.3h122.3v-20c0-1.2,0-2.5-0.2-3.7l1.6-2.1l9.1-12.4l3.9-5.3v-61.3l37.2-6.8l16.4-3
	v-47.3c0-21.5-8.4-39.7-16.2-47.5l-31-30.9V813l-2.9-3.6c0.3-1.6,0.4-3.1,0.4-4.7c0-4.4-1-8.8-3-12.7c-2.3-4.5-6.1-8.1-10.6-10.2
	V654.1l6.6-10.5l3.1-4.9v-81.1l-0.2-1.5l-3.4-22.3l-0.8-5.1l-3.1-4.1l-3.4-4.5c0.5-6.1-1.2-12.2-4.8-17.1
	c-1.8-2.5-16.8-24.8-23.2-34.4l-5.4-8c-3.9-5.6-9.5-10-15.9-12.4l-1.8-2.7v-11.3l-1.7-3.9l-4.5-10.1V313.4
	c-0.1-33.6-7.2-66.8-20.8-97.4c-8.5-19.4-19.3-37.8-32.1-54.8c-0.1-0.8-0.2-1.5-0.2-2C670,140.8,656.9,130.8,644.5,130.9
	L644.5,130.9z"/>
<g>
	<defs>
		<circle id="SVGID_1_" cx="644.7" cy="719.7" r="429.3"/>
	</defs>
	<clipPath id="SVGID_2_">
		<use xlink:href="#SVGID_1_"  style="overflow:visible;"/>
	</clipPath>
	<g class="st3">
		<polygon class="st2" points="643.4,869.7 657.8,526.6 657.8,870.3 686.5,529.3 672.1,872.3 715,534.7 686.3,875.7 743.2,542.8 
			700.3,880.4 771.1,553.5 714.1,886.5 798.4,566.8 727.6,893.8 825.1,582.7 740.8,902.3 851.1,601.1 753.6,912.1 876.3,621.9 
			766,923.1 900.5,645 777.9,935.2 923.8,670.4 789.2,948.5 945.9,697.9 800,962.7 966.9,727.4 810.2,978 986.6,758.8 819.7,994.2 
			1004.9,792.1 828.5,1011.2 1021.8,827 836.5,1029.1 1037.2,863.4 843.9,1047.6 1051,901.2 850.4,1066.8 1063.2,940.3 
			856.1,1086.6 1073.8,980.4 861,1106.9 1082.7,1021.4 865,1127.7 1089.8,1063.2 868.1,1148.7 1095.2,1105.6 870.3,1170 
			1098.8,1148.4 871.7,1191.5 1100.6,1191.5 872.2,1213.1 1100.6,1234.6 871.7,1234.6 1098.8,1277.7 870.3,1256.1 1095.2,1320.5 
			868.1,1277.4 1089.8,1362.9 865,1298.5 1082.7,1404.7 861,1319.2 1073.8,1445.7 856.1,1339.5 1063.2,1485.8 850.4,1359.3 
			1051,1524.9 843.9,1378.5 1037.2,1562.7 836.5,1397.1 1021.8,1599.1 828.5,1414.9 1004.9,1634 819.7,1432 986.6,1667.3 
			810.2,1448.2 966.9,1698.7 800,1463.4 945.9,1728.3 789.2,1477.7 923.8,1755.8 777.9,1490.9 900.5,1781.1 766,1503 876.3,1804.2 
			753.6,1514 851.1,1825 740.8,1523.8 825.1,1843.4 727.6,1532.4 798.4,1859.3 714.1,1539.7 771.1,1872.6 700.3,1545.7 
			743.2,1883.4 686.3,1550.4 715,1891.4 672.1,1553.8 686.5,1896.8 657.8,1555.8 657.8,1899.6 643.4,1556.5 629.1,1899.6 
			629.1,1555.8 600.4,1896.8 614.8,1553.8 571.9,1891.4 600.6,1550.4 543.7,1883.4 586.6,1545.7 515.8,1872.6 572.8,1539.7 
			488.5,1859.3 559.2,1532.4 461.8,1843.4 546.1,1523.8 435.8,1825 533.3,1514 410.6,1804.2 520.9,1503 386.3,1781.1 509,1490.9 
			363.1,1755.8 497.6,1477.7 340.9,1728.3 486.9,1463.4 320,1698.7 476.7,1448.2 300.3,1667.3 467.2,1432 282,1634 458.4,1414.9 
			265.1,1599.1 450.3,1397.1 249.7,1562.7 443,1378.5 235.9,1524.9 436.5,1359.3 223.6,1485.8 430.8,1339.5 213.1,1445.7 
			425.9,1319.2 204.2,1404.7 421.9,1298.5 197,1362.9 418.8,1277.4 191.6,1320.5 416.5,1256.1 188.1,1277.7 415.2,1234.6 
			186.2,1234.6 414.7,1213.1 186.2,1191.5 415.2,1191.5 188.1,1148.4 416.5,1170 191.6,1105.6 418.8,1148.7 197,1063.2 
			421.9,1127.7 204.2,1021.4 425.9,1106.9 213.1,980.4 430.8,1086.6 223.6,940.3 436.5,1066.8 235.9,901.2 443,1047.6 249.7,863.4 
			450.3,1029.1 265.1,827 458.4,1011.2 282,792.1 467.2,994.2 300.3,758.8 476.7,978 320,727.4 486.9,962.7 340.9,697.9 
			497.6,948.5 363.1,670.4 509,935.2 386.3,645 520.9,923.1 410.6,621.9 533.3,912.1 435.8,601.1 546.1,902.3 461.8,582.7 
			559.2,893.8 488.5,566.8 572.8,886.5 515.8,553.5 586.6,880.4 543.7,542.8 600.6,875.7 571.9,534.7 614.8,872.3 600.4,529.3 
			629.1,870.3 629.1,526.6 		"/>
	</g>
</g>
<g>
	<defs>
		<circle id="SVGID_3_" cx="644.7" cy="719.7" r="429.3"/>
	</defs>
	<clipPath id="SVGID_4_">
		<use xlink:href="#SVGID_3_"  style="overflow:visible;"/>
	</clipPath>
	<g class="st4">
		<path class="st5" d="M449.2,1173.8c-28.8,0-53.9-16.9-63.8-43.1c-11.3-29.9,0.8-63.3,27.2-80.7l3.1-11.2
			c4.4-15.9,14.9-28,28.7-33.2c5-1.9,10.2-2.8,15.5-2.8c5.5,0,10.9,1,16.1,2.8c6.1-13.5,17.2-24,31-29.3c6.2-2.4,12.8-3.6,19.5-3.6
			c25.8,0,49.8,17.7,59.8,44c12.9,34-1.7,71.1-32.5,82.8c-6.2,2.4-12.8,3.6-19.5,3.6l0,0c-4.7,0-9.4-0.6-14-1.8
			c1.4,29.2-16.9,56.8-45.6,67.8C466.5,1172.2,457.9,1173.8,449.2,1173.8z M441.9,1038.7c-4.1,0-8.2,0.7-12,2.2
			c-2.1,0.8-4,1.8-5.9,3c0.9-0.4,1.8-0.8,2.8-1.1c5.1-1.9,10.3-3.3,15.7-4L441.9,1038.7z"/>
		<path class="st2" d="M526.5,977.7c23.1,0,45.7,15.8,55.1,40.8c11.9,31.5-1.3,65.7-29.7,76.4c-5.7,2.1-11.7,3.2-17.7,3.2
			c-6.8,0-13.5-1.3-19.8-3.9c5,29.1-12,59-41.6,70.2c-7.6,2.9-15.6,4.4-23.8,4.4c-25.8,0-49.8-15.1-59.1-39.9
			c-12.2-32.3,5-68.8,38.5-81.5c7.6-2.9,15.6-4.4,23.7-4.4c7.4,0,14.7,1.2,21.6,3.7c-9.4-8.3-20.8-13-32-13c-7.6,0-15,2.2-21.4,6.4
			c3.9-13.9,12.8-25,25.6-29.9c4.4-1.7,9-2.5,13.7-2.5c6.5,0.1,12.9,1.5,18.8,4.3c5.3-14.2,15.8-25.7,30.2-31.1
			C514.4,978.8,520.4,977.7,526.5,977.7 M526.5,967.7c-7.3,0-14.5,1.3-21.2,3.9c-13.6,5.2-25,15.1-31.9,28
			c-4.4-1.2-8.9-1.8-13.5-1.8c-5.9,0-11.8,1.1-17.3,3.2c-15.3,5.8-26.8,19.1-31.7,36.6l-2.6,9.4c-27.3,19-39.6,54.1-27.6,85.6
			c5.3,13.9,14.8,25.8,27.3,34c12.2,8.1,26.6,12.4,41.2,12.3c9.3,0,18.6-1.7,27.3-5c28.7-10.9,47.6-37.4,48.9-66.3
			c3,0.4,6,0.7,9,0.7c7.3,0,14.5-1.3,21.2-3.9c33.4-12.7,49.3-52.7,35.5-89.3C580.3,986.7,554.4,967.7,526.5,967.7L526.5,967.7z"/>
		<path class="st5" d="M839,1173.8c-8.7,0-17.4-1.6-25.5-4.7c-28.8-10.9-47-38.6-45.6-67.8c-4.6,1.2-9.3,1.7-14,1.8
			c-6.7,0-13.3-1.2-19.5-3.6c-30.8-11.7-45.4-48.8-32.5-82.8c10-26.3,34-44,59.8-44c6.7,0,13.3,1.2,19.5,3.6
			c13.8,5.3,25,15.8,31.1,29.3c5.2-1.8,10.6-2.8,16.1-2.8c5.3,0,10.5,0.9,15.5,2.8c13.8,5.2,24.2,17.3,28.7,33.2l3.1,11.2
			c10.8,7.1,19.5,17,25,28.7c7.8,16.3,8.7,35.1,2.2,52C892.8,1156.9,867.8,1173.8,839,1173.8z M845.7,1038.7
			c5.4,0.7,10.6,2.1,15.7,4c0.9,0.4,1.8,0.7,2.8,1.1c-5.3-3.4-11.5-5.2-17.9-5.1L845.7,1038.7z"/>
		<path class="st2" d="M761.6,977.7c6,0,12,1.1,17.7,3.2c14.4,5.5,24.9,17,30.2,31.1c5.9-2.8,12.3-4.3,18.8-4.3
			c4.7,0,9.3,0.8,13.7,2.5c12.8,4.9,21.8,16,25.6,29.9c-6.3-4.2-13.8-6.5-21.4-6.4c-11.2,0-22.5,4.7-32,13
			c6.9-2.4,14.2-3.7,21.6-3.7c8.1,0,16.1,1.5,23.7,4.4c33.5,12.7,50.8,49.2,38.5,81.5c-9.4,24.8-33.4,39.9-59.2,39.9
			c-8.1,0-16.2-1.5-23.8-4.4c-29.7-11.2-46.6-41.1-41.6-70.2c-6.3,2.5-13,3.8-19.8,3.9c-6,0-12-1.1-17.7-3.2
			c-28.3-10.7-41.6-44.9-29.7-76.4C715.9,993.4,738.5,977.7,761.6,977.7 M761.6,967.7L761.6,967.7L761.6,967.7
			c-27.9,0-53.8,19-64.5,47.2c-6.6,17.1-6.7,36-0.2,53.1c6.6,17.1,19.3,29.9,35.7,36.2c6.8,2.6,14,3.9,21.2,3.9c3,0,6-0.2,9-0.7
			c1.2,28.9,20.1,55.4,48.9,66.3c8.7,3.3,18,5,27.3,5c14.7,0,29-4.2,41.2-12.3c29.7-19.5,40.3-58,24.8-90
			c-5.6-11.9-14.3-22.2-25.2-29.7l-2.6-9.4c-4.9-17.4-16.4-30.8-31.7-36.6c-5.5-2.1-11.4-3.2-17.3-3.2c-4.6,0-9.1,0.6-13.5,1.8
			c-6.9-12.9-18.2-22.8-31.9-28c-6.8-2.6-14-3.9-21.2-3.9L761.6,967.7z"/>
		<rect x="500.8" y="1015.4" class="st5" width="286.4" height="153.9"/>
		<path class="st2" d="M595,1030.7c0,0-17.8,32.3,31.5,104.4c0,0-1-19.2,5.3-31.1c0,0,16.5,42,17.8,56.8c0,0,23.2-48.3,18.6-80.7
			c0,0,14.7,14.4,9.7,31.6c0,0,31.2-26.5,21.4-80.7L595,1030.7z"/>
		<path class="st2" d="M690.9,1030.8c0,0-11.4,20.7,20.3,67.1c0,0-0.7-12.3,3.4-20c0,0,10.6,27,11.4,36.5c0,0,14.9-31.1,12-51.8
			c0,0,9.5,9.2,6.2,20.3c0,0,20.1-17,13.8-51.9L690.9,1030.8z"/>
		<path class="st2" d="M529.7,1030.8c0,0-11.4,20.7,20.3,67.1c0,0-0.7-12.3,3.4-20c0,0,10.6,27,11.4,36.5c0,0,14.9-31.1,12-51.8
			c0,0,9.5,9.2,6.2,20.3c0,0,20.1-17,13.8-51.9L529.7,1030.8z"/>
	</g>
</g>
<path class="st6" d="M366.4,921.8c-2.9,2.2-3.3,4.3,0.4,13c3.5,8.3,4.6,14.8-1.5,19.5s-14.2,2.3-20.8-6.3c-4.5-5.9-6-11.5-6.1-16.4
	l7.1-0.4c0.2,4.5,1.8,8.8,4.5,12.3c3.6,4.8,6.6,5.5,8.9,3.7c2.6-2,2.2-4.7-1.2-13.2c-3.4-8.2-4.4-14.6,2.2-19.7
	c7.6-5.8,16.6-0.9,22.7,7.1c5,6.5,6.4,12.8,6.1,18.2l-7.5-0.5c0.2-4.8-1.3-9.5-4.2-13.4C373.3,921.1,369.3,919.5,366.4,921.8z"/>
<path class="st6" d="M315.8,852.8c12.1-5.8,23.5-4.7,28.3,5.4c2,3.8,2.1,8.3,0.4,12.2l18.7-8.9l5,8l-56.1,26.6l-3.5-7.3l4.9-3
	c-5.1-0.8-9.4-4.1-11.7-8.7C296.8,866.7,303.1,858.8,315.8,852.8z M319.2,882.4l18.6-8.8c2-3,2.3-6.8,0.7-10
	c-2.7-5.7-8.5-6.7-18.5-2c-10.3,4.9-13.2,9.5-10.7,14.8C311.2,880.2,315.2,881.9,319.2,882.4z"/>
<path class="st6" d="M311.5,776.5l6.7,0.7c0.5,4.3-0.5,7.8-3.9,10.2c4.7,2.2,7.8,6.8,9.1,12.3c2,8.8-2.1,15.4-10.1,17.2
	c-9,2.1-15.8-4.1-18.8-17.2l-1.4-6.1l-2.8,0.6c-5.6,1.3-7,5.3-5.6,11.3c1,3.9,2.6,7.5,4.8,10.9l-5.9,3.8c-3-4.4-5.1-9.2-6.4-14.4
	c-2.7-11.5,1.4-18.4,10.4-20.5l19.2-4.5C310.2,780.3,311.2,779,311.5,776.5z M308.3,790.2l-9.5,2.2l1.2,5c2,8.5,5.8,11.2,10.8,10
	c4.5-1.1,6.4-4.1,5.3-8.9C315.1,794.6,312.1,791.5,308.3,790.2L308.3,790.2z"/>
<path class="st6" d="M301.9,711.7l5.9-4.4c3.6,4.3,5.6,9.7,5.7,15.3c0.2,13.6-8.7,21.6-22.5,21.9c-13.4,0.2-23.6-7.6-23.8-21.2
	c-0.2-5.6,1.6-11,5.1-15.4l5.9,4.2c-2.2,3.2-3.5,7-3.5,10.8c0.1,7,5.1,11.8,16.2,11.6s15.1-5.3,15-12.1
	C305.8,718.3,304.2,714.9,301.9,711.7z"/>
<path class="st6" d="M312.7,654.5c0.7-4.1,0.2-8.3-1.6-12.1l6.3-2.9c2.7,5.2,3.5,11.1,2.4,16.8c-2.6,13.5-13.2,19.2-26.7,16.6
	c-13-2.5-21.4-11.8-19.1-24.1c2.2-11.5,11.8-17.2,25.2-14.6c1.4,0.2,2.7,0.6,4.1,1l-5.5,28.8C306.8,665.1,311.5,660.8,312.7,654.5z
	 M291.6,662.9l3.8-20.1c-8.2-1.4-13.4,1.1-14.5,7.3C279.8,655.8,283,660.7,291.6,662.9z"/>
<path class="st6" d="M330.5,579.2c-3.3-1.4-5.4-0.7-11.1,6.8c-5.5,7.2-10.5,11.3-17.6,8.4s-9.1-11.2-4.9-21.2
	c2.9-6.8,7-10.9,11.2-13.5l3.9,6c-3.8,2.4-6.7,5.9-8.5,10c-2.3,5.5-1.5,8.4,1.2,9.6c3.1,1.3,5.2-0.5,10.8-7.6s10.5-11.1,18.2-7.9
	c8.9,3.7,9,13.9,5.1,23.2c-3.2,7.5-7.9,11.9-12.7,14.3l-3.3-6.7c4.2-2.3,7.6-5.9,9.5-10.3C334.5,584.9,333.9,580.7,330.5,579.2z"/>
<path class="st6" d="M335.6,514.9c-1.5-5.1-0.6-10.6,2.4-15c4.7-6.8,11-7.3,17.8-2.5l26.4,18.4l-5.4,7.7l-25.2-17.6
	c-4.3-3-7.1-2.6-9.7,1c-2.4,3.4-2,8.3-0.5,12.2l25.9,18.1l-5.4,7.7l-50.6-35.4l4.5-8.2L335.6,514.9z"/>
<path class="st6" d="M380,431.1c2.4,2.4,2.4,6.2,0,8.6c-2.4,2.4-6.2,2.4-8.6,0c-2.4-2.4-2.4-6.2,0-8.6c0,0,0.1-0.1,0.1-0.1
	c2.3-2.3,5.9-2.4,8.3-0.1C379.8,430.9,379.9,431,380,431.1z M416.5,469.4l8.8-8.2l4.7,5l-25.1,23.6l-4.7-5l9.5-9l-20.8-22.1
	l-9.2,8.7l-4.7-5l16-15.1L416.5,469.4z"/>
<path class="st6" d="M477.2,407.6c7,11.5,7.1,22.9-2.5,28.7c-3.6,2.4-8,3-12.1,1.7l10.8,17.7l-7.4,5.8l-32.3-53.1l6.9-4.2l3.4,4.6
	c0.3-5.1,3.1-9.8,7.4-12.5C461.4,390.1,469.9,395.6,477.2,407.6z M448.1,414.1l10.7,17.6c3.2,1.7,7,1.6,10-0.3
	c5.4-3.3,5.8-9.2,0-18.6c-5.9-9.7-10.8-12.2-15.8-9.1C449.4,405.8,448.2,410,448.1,414.1z"/>
<path class="st6" d="M855.9,435.6l-38,10.7l-2.8-9.1l15.3-4.2c3.4-1,6.9-1.6,10.5-1.8l-32.2-20.5l4.7-7.4l32.2,20.5
	c-1.5-3.3-2.4-6.8-2.9-10.3l-2.7-15.6l9.5-1.4L855.9,435.6z"/>
<path class="st6" d="M901.2,479.7c2.6,2.6,6.7,2.4,11.6,1l2.3,6.9c-7,2.3-14.5,3.7-20.2-2.2c-6.2-6.3-2-15.3-6-19.4
	c-2.7-2.8-6.7-2.4-11.6-1l-2.4-6.9c6.7-2.1,14.4-3.7,20.2,2.2C901.7,466.9,897.2,475.6,901.2,479.7z"/>
<path class="st6" d="M964.1,583.3c-13.3,6.7-26,5.8-31.5-5.3c-2.3-4.2-2.6-9.1-0.8-13.5l-20.6,10.4l-5.8-8.7l61.6-31.1l4,8l-5.3,3.4
	c6.2,1.1,10.8,4.5,13.2,9.3C984.8,567.3,978,576.2,964.1,583.3z M959.5,550.5L939,560.8c-2.1,3.3-2.3,7.5-0.5,11.1
	c3.2,6.3,9.7,7.2,20.6,1.7c11.3-5.7,14.5-10.9,11.5-16.7C968.5,552.7,964,550.9,959.5,550.5z"/>
<path class="st6" d="M1009.8,649.8l-18,2.8l-1.8-7.2l9.7-2.5c-1.9-6.6-8.5-10.3-18.5-10.6l-17.6,4.5l2.4,9.5l-7.2,1.8l-6.8-26.6
	l7.2-1.8l1.8,7l33.1-8.4l-1.8-7l7.2-1.8l3.7,14.7l-10.5,4.6c8.8,1.6,14.3,5.5,16.4,13.6C1009.7,644.8,1010,647.3,1009.8,649.8z"/>
<path class="st6" d="M991.7,732.9c-15.6,0.4-26-7.3-26.3-21.5s9.3-22.4,25.2-22.8c15.3-0.4,26,7.3,26.3,21.6
	S1007.2,732.5,991.7,732.9z M990.8,699.5c-12.2,0.3-17.6,4.2-17.4,11.7s5.8,11.1,18.1,10.8c12.1-0.3,17.5-4.1,17.3-11.6
	S1002.9,699.2,990.8,699.5z"/>
<path class="st6" d="M990.5,816.7l-35.6-7.4l1.9-9l34.3,7.1c5,1,7.2,1.1,7.8-1.7c0.5-2.4-0.4-5-3.3-8.1l-36.5-7.6l1.7-8.3l34.2,7.1
	c5,1,7.2,1.1,7.8-1.7c0.5-2.5-0.4-5-3.3-8.1l-36.5-7.6l1.9-9.1l48,10l-1.6,7.6l-5.3-0.3c3.2,3.5,5.3,7,4.3,11.6
	c-0.8,3.6-3,6.5-7.8,6.9c3.1,3.5,4.9,7.2,3.9,11.8C1004.9,815.4,1001.1,818.9,990.5,816.7z"/>
<path class="st6" d="M949.2,887c-13.5-6.3-20.6-16.8-15.4-28.1c1.8-4.4,5.6-7.7,10.1-9l-20.8-9.7l3.3-9.9l62.6,29.2l-3.8,8.2l-6-2.1
	c3,5.5,3.2,11.2,0.8,16.2C974.5,893.4,963.3,893.6,949.2,887z M972.1,863.1l-20.8-9.7c-3.9,0.4-7.3,2.9-9,6.4
	c-3,6.4,0.3,12,11.4,17.2c11.4,5.3,17.5,4.6,20.3-1.3C976,871.5,974.5,866.9,972.1,863.1L972.1,863.1z"/>
<path class="st6" d="M894,922.1c7-9,15.7-9.9,23.4-4l21,16.2l6.7-8.6l6,4.7l-6.7,8.6l8.7,6.7l-5.4,9l-9.6-7.5l-10.2,13.1l-5.3-5.6
	l9.4-12.2l-21-16.2c-4.2-3.2-7.7-2.8-11.4,2c-2,2.5-3.2,5.5-3.7,8.6l-7.7-1.3C888.8,930.7,890.8,926,894,922.1z"/>
<g class="st7">
	<path class="st0" d="M366.4,921.9c-2.8,2.2-3.3,4.3,0.4,13c3.6,8.3,4.6,14.7-1.4,19.4c-6,4.6-14.2,2.4-20.8-6.2
		c-4.5-5.9-6.1-11.4-6.2-16.4l7.1-0.5c0.3,4.1,1.4,8.2,4.5,12.3c3.7,4.8,6.6,5.4,8.9,3.6c2.6-2,2.2-4.7-1.3-13.1
		c-3.4-8.2-4.5-14.5,2.1-19.6c7.6-5.9,16.5-1,22.7,7c5,6.5,6.4,12.7,6.2,18.1l-7.5-0.4c0.1-4.4-1.1-9.2-4.3-13.3
		C373.3,921.2,369.3,919.7,366.4,921.9z"/>
</g>
<g class="st7">
	<path class="st0" d="M315.8,852.9c12.1-5.8,23.4-4.7,28.2,5.3c2,4.1,2.2,8.2,0.5,12.2l18.6-8.9l5,8l-55.9,26.7l-3.5-7.3l4.9-3
		c-5.5-1.1-9.6-4.2-11.7-8.6C296.9,866.9,303.2,859,315.8,852.9z M319.3,882.5l18.6-8.9c2-3.2,2.2-6.7,0.7-9.9
		c-2.7-5.7-8.5-6.6-18.4-1.9c-10.2,4.9-13.2,9.5-10.7,14.8C311.3,880.3,315.3,882,319.3,882.5z"/>
</g>
<g class="st7">
	<path class="st0" d="M311.5,776.5l6.7,0.7c0.5,4.3-0.5,7.8-3.9,10.2c4.7,2.2,7.8,6.8,9.1,12.3c2,8.8-2.1,15.4-10.1,17.2
		c-8.9,2.1-15.8-4.1-18.8-17.2l-1.4-6.1l-2.8,0.6c-5.6,1.3-7,5.3-5.6,11.3c0.7,2.8,2.3,6.9,4.8,10.9l-5.9,3.8
		c-3.3-4.9-5.4-10-6.4-14.4c-2.7-11.6,1.4-18.4,10.4-20.5l19.2-4.5C310.2,780.3,311.3,779,311.5,776.5z M308.3,790.2l-9.5,2.2l1.2,5
		c2,8.5,5.8,11.2,10.8,10c4.6-1.1,6.4-4.1,5.3-8.9C315.2,794.9,312.3,791.5,308.3,790.2z"/>
</g>
<g class="st7">
	<path class="st0" d="M301.9,711.6l5.9-4.4c3.3,3.8,5.6,9.5,5.7,15.4c0.2,13.6-8.7,21.6-22.5,21.9c-13.4,0.2-23.6-7.6-23.8-21.2
		c-0.1-6,1.6-11.1,5.1-15.4l5.9,4.2c-2.3,3.5-3.6,7.1-3.5,10.8c0.1,7,5.1,11.8,16.2,11.6s15.1-5.3,15-12.1
		C305.8,718.3,304.2,714.9,301.9,711.6z"/>
</g>
<g class="st7">
	<path class="st0" d="M312.8,654.6c0.8-4.2,0.2-7.9-1.6-12.1l6.3-2.8c2.5,4.6,3.4,10.7,2.3,16.7c-2.6,13.5-13.2,19.1-26.7,16.5
		c-12.9-2.5-21.3-11.9-18.9-24.1c2.2-11.5,11.8-17.1,25.2-14.5c1.5,0.3,3,0.7,4,1l-5.6,28.6C306.9,665.1,311.6,660.8,312.8,654.6z
		 M291.7,662.8l3.9-20c-8.2-1.4-13.4,1.1-14.6,7.2C279.9,655.7,283.2,660.6,291.7,662.8z"/>
</g>
<g class="st7">
	<path class="st0" d="M330.5,579.2c-3.3-1.4-5.4-0.7-11.1,6.8c-5.5,7.2-10.6,11.3-17.6,8.4c-7-2.9-9.1-11.2-4.9-21.2
		c2.9-6.9,6.9-10.9,11.2-13.5l3.9,6c-3.4,2.3-6.5,5.3-8.5,10c-2.3,5.5-1.5,8.4,1.2,9.6c3.1,1.3,5.2-0.5,10.8-7.6
		c5.5-7,10.5-11.1,18.2-7.9c8.9,3.7,9,13.9,5.1,23.2c-3.2,7.5-7.9,11.9-12.7,14.3l-3.3-6.7c3.9-2.1,7.5-5.5,9.5-10.3
		C334.5,584.9,333.9,580.7,330.5,579.2z"/>
</g>
<g class="st7">
	<path class="st0" d="M335.6,514.9c-1.5-5.4-0.5-10.8,2.4-15c4.7-6.8,11-7.3,17.8-2.5l26.4,18.4l-5.4,7.7l-25.2-17.6
		c-4.3-3-7.1-2.6-9.7,1c-2.4,3.4-1.9,8.3-0.5,12.2l25.9,18.1l-5.4,7.7l-50.6-35.4l4.5-8.2L335.6,514.9z"/>
</g>
<g class="st7">
	<path class="st0" d="M379.8,430.8c2.3,2.4,2.2,6-0.4,8.5c-2.7,2.5-6.2,2.4-8.5-0.1s-2.3-6,0.4-8.5
		C373.9,428.2,377.5,428.4,379.8,430.8z M416.5,469.2l8.8-8.3l4.7,5l-25.2,23.8l-4.7-5l9.6-9l-21-22.2l-9.3,8.8l-4.7-5l16.1-15.2
		L416.5,469.2z"/>
</g>
<g class="st7">
	<path class="st0" d="M477.2,407.6c7,11.5,7.1,22.9-2.5,28.7c-3.9,2.4-8,3-12.1,1.7l10.8,17.7l-7.4,5.8l-32.3-53.1l6.9-4.2l3.4,4.5
		c0.5-5.6,3.2-10,7.4-12.5C461.4,390.1,469.9,395.6,477.2,407.6z M448.1,414.1l10.7,17.6c3.4,1.6,6.9,1.6,10-0.3
		c5.4-3.3,5.8-9.2,0-18.6c-5.9-9.7-10.8-12.2-15.8-9.1C449.4,405.8,448.2,410,448.1,414.1z"/>
</g>
<g class="st7">
	<path class="st0" d="M855.9,435.6l-38,10.7l-2.8-9.1l15.3-4.1c3.7-1,7.1-1.6,10.5-1.8l-32.2-20.5l4.7-7.4l32.2,20.6
		c-1.6-3.4-2.1-5.9-2.9-10.3l-2.7-15.6l9.4-1.4L855.9,435.6z"/>
</g>
<g class="st7">
	<path class="st0" d="M901.2,479.7c2.6,2.7,6.7,2.4,11.6,1l2.4,6.9c-7,2.3-14.5,3.7-20.2-2.2c-6.2-6.3-2-15.3-6-19.4
		c-2.7-2.8-6.7-2.4-11.6-1l-2.4-6.9c6.6-2.1,14.4-3.7,20.2,2.2C901.7,466.9,897.2,475.6,901.2,479.7z"/>
</g>
<g class="st7">
	<path class="st0" d="M964.1,583.3c-13.3,6.7-26,5.8-31.6-5.3c-2.3-4.6-2.6-9.1-0.8-13.5l-20.5,10.4l-5.8-8.7l61.6-31.1l4.1,8
		l-5.3,3.4c6.1,1.1,10.8,4.4,13.2,9.3C984.8,567.3,978,576.2,964.1,583.3z M959.5,550.4L939,560.8c-2.1,3.7-2.3,7.5-0.5,11.1
		c3.2,6.3,9.7,7.2,20.6,1.7c11.3-5.7,14.4-10.9,11.5-16.7C968.5,552.7,964,550.9,959.5,550.4z"/>
</g>
<g class="st7">
	<path class="st0" d="M1010,649.7l-18,2.8l-1.9-7.2l9.7-2.5c-1.9-6.6-8.6-10.3-18.6-10.6l-17.6,4.5l2.5,9.5l-7.2,1.9l-6.9-26.6
		l7.2-1.9l1.8,7l33.1-8.5l-1.8-7l7.2-1.9l3.8,14.7l-10.5,4.6c8.8,1.6,14.4,5.4,16.5,13.6C1010,645.1,1010.1,647.4,1010,649.7z"/>
</g>
<g class="st7">
	<path class="st0" d="M991.4,733c-15.6,0.3-26-7.5-26.2-21.7c-0.3-14.3,9.4-22.4,25.3-22.7c15.3-0.3,26,7.5,26.2,21.8
		C1017,724.7,1007,732.7,991.4,733z M990.7,699.6c-12.2,0.2-17.6,4.1-17.5,11.6s5.8,11.1,18,10.9c12.1-0.2,17.6-4.1,17.4-11.5
		C1008.5,703,1002.8,699.4,990.7,699.6z"/>
</g>
<g class="st7">
	<path class="st0" d="M990.5,816.7l-35.6-7.4l1.9-9l34.2,7.1c5,1,7.2,1.1,7.7-1.7c0.5-2.4-0.4-5-3.3-8.1l-36.5-7.6l1.7-8.3l34.2,7.1
		c5,1,7.2,1.1,7.7-1.7c0.5-2.5-0.4-5-3.3-8.1l-36.5-7.6l1.9-9.1l48,10l-1.6,7.6l-5.3-0.4c3.2,3.5,5.3,7,4.3,11.6
		c-0.8,3.6-3,6.5-7.8,6.9c3.1,3.5,4.9,7.2,3.9,11.8C1004.9,815.4,1001.1,818.9,990.5,816.7z"/>
</g>
<g class="st7">
	<path class="st0" d="M949.2,887c-13.5-6.3-20.6-16.8-15.4-28.1c2.2-4.6,5.5-7.7,10.1-9l-20.9-9.7l3.3-9.9l62.6,29.2l-3.8,8.2
		l-6-2.1c3,5.5,3.2,11.2,0.9,16.2C974.5,893.4,963.3,893.6,949.2,887z M972.1,863.1l-20.8-9.7c-4.2,0.6-7.4,2.8-9,6.4
		c-3,6.4,0.3,12,11.4,17.2c11.4,5.3,17.5,4.6,20.3-1.3C975.9,871.6,974.5,866.9,972.1,863.1z"/>
</g>
<g class="st7">
	<path class="st0" d="M894,922.1c7-9,15.7-9.9,23.3-4l21,16.2l6.6-8.6l6,4.6l-6.6,8.6l8.7,6.7l-5.4,8.9l-9.6-7.4l-10.1,13.1
		l-5.3-5.6l9.4-12.2l-20.9-16.1c-4.2-3.2-7.7-2.8-11.4,2c-2.2,2.8-3.3,5.8-3.7,8.6l-7.7-1.3C888.7,931.4,890.7,926.4,894,922.1z"/>
</g>
<path class="st5" d="M639.8,988.8c0,0,1.2,52.6,2.5,52.6h3.5c1.3,0,2.5-52.6,2.5-52.6"/>
<path class="st8" d="M585.1,940.4V444.9h2.7v-24.5l-8.7,18.1v6.5h1.1v5.1l-10.3,15.4c0,0-8.3,1.1-11.9,6.5s-27.6,41.2-29,43
	s-1.3,4.8,0,5.5c0.9,0.5,1.8,1.1,2.7,1.8l-11.2,14.6l-3.4,22.3V633l9.7,15.4v144l-2.8,7.3H516c-3.8,0-4.1,10,0.2,10h2.7l-8.5,10.5v7
	l-36.8,36.8c-4,4-10.3,17.4-10.3,33.3v30.7l53.5,9.9v71.4l9.1,12.4h10c0,0-4.7,8.9-4.7,17.7h63.1c0.1-6.2-1.5-12.4-4.4-17.9h7.7
	c0-4.7-2.1-6.3-2.1-6.3l0.8-0.6V987c0,0-3-3.9-3-19.6c-1.6-2-4.1-3.2-6.7-3.1V956c0,0-19.6-6.5-26.6-6.9s-15.6-2.6-18-3.1
	s-7.7-1.2-7.7-1.2v-6.7H532v6.7h-13.5v-11.5"/>
<path class="st8" d="M703.1,940.4V444.9h-2.7v-24.5l8.7,18.1v6.5H708v5.1l10.3,15.4c0,0,8.3,1.1,11.9,6.5s27.6,41.2,29,43
	s1.3,4.8,0,5.5c-0.9,0.5-1.8,1.1-2.7,1.8l11.2,14.6l3.4,22.3V633l-9.7,15.4v144l2.8,7.3h7.9c3.8,0,4.1,10-0.2,10h-2.7l8.5,10.5v7
	l36.8,36.8c4,4,10.3,17.4,10.3,33.3v30.7l-53.5,9.9v71.4l-9.1,12.4h-10c0,0,4.7,8.9,4.7,17.7h-63.1c-0.1-6.2,1.5-12.4,4.4-17.9h-7.7
	c0-4.7,2.1-6.3,2.1-6.3l-0.8-0.6V987c0,0,3-3.9,3-19.6c1.6-2,4.1-3.2,6.7-3.1V956c0,0,19.6-6.5,26.6-6.9s15.6-2.6,18-3.1
	s7.7-1.2,7.7-1.2v-6.7h2.2v6.7h13.4v-11.5"/>
<path class="st0" d="M648.4,1044.1v-10l0,0V1044.1L648.4,1044.1v-10c-1.4,0-2.7,0.6-3.5,1.8c0.6-1,1.8-5.7,2.3-10
	c0.6-4.9,3.4-13.6,5.2-18.8c-3.2-2.3-5.7-5.3-7.4-8.8h-1.8c-1.7,3.5-4.2,6.5-7.4,8.8c1.8,5.2,4.6,13.9,5.2,18.8
	c0.5,4.3,1.8,8.9,2.3,10c-0.8-1.1-2.1-1.8-3.5-1.8v10h-40.8v-10c-1.5,0-3,0.8-3.7,2.2c0.4-1.9,0.7-3.8,0.9-5.7
	c0.2-1.4,0.4-2.9,0.6-4.7c0.9-6.2,3.6-14.1,5.3-18.8c-7.7-6.1-10.3-15.3-10.9-18.3l-13.6-24.2l-65.1-13.3l0.3-16.3l7.8-58.4
	l59.3-71.8V313.4c0-69,31.9-118.6,48.6-143.5c0-0.3-0.1-0.7-0.1-1c0-2.9,1.8-6.4,3.3-8.9c0.3-1,0.6-2.1,0.7-3.2
	c0.2-2,0.7-3.9,1.6-5.6c2.1-3.3,5.8-5.3,9.7-5.3h0.9c3.7,0,10.7,2.9,10.7,13.7c0.1,2.5,0.4,5.1,0.8,7.6c24,31,52.2,81.4,52.2,146.3
	v494.6l57.6,56.8l9.6,70.7l0.3,15.1l-79.1,39.7c-1.1,3.9-4,11.5-10.5,16.7c1.7,4.6,4.4,12.5,5.3,18.8c0.2,1.8,0.5,3.3,0.6,4.7
	c0.2,1.9,0.5,3.8,0.9,5.7c-0.7-1.4-2.1-2.2-3.7-2.2v10L648.4,1044.1z M639.7,1044.1v-10V1044.1z"/>
<path class="st5" d="M644.5,150.9c0.3,0,5.7,0.1,5.7,8.7c0,1.4,0.8,9.4,1.4,10c17.8,23,51.7,74.4,51.7,143.9v21.1h-83.1v1.1h83.1
	v474.5l57.9,57.1l9.3,68.8l0.2,11.7L692.3,987c0,0-2.1,12.7-12.3,18.1c0,0,5.2,12.7,6.5,21.4c1.2,8.7,1.3,12.5,2.8,12.5h-40.8
	c1.3,0,3.2-7.5,3.8-12.6c0.8-6.4,6.3-21.6,6.3-21.6c-4.9-2.1-8.7-6.3-10.1-11.5h-8.6c-1.5,5.2-5.2,9.4-10.1,11.5
	c0,0,5.5,15.2,6.3,21.6c0.6,5.1,2.5,12.6,3.8,12.6h-40.8c1.5,0,1.6-3.8,2.8-12.5s6.5-21.4,6.5-21.4c-10.2-5.4-12.3-18.1-12.3-18.1
	l-15.1-26.8l-63.2-12.9l0.2-11.9l7.6-56.7l59.5-72.1V313.4c0-69.4,33.5-119.4,49.2-142.9c0,0-0.6-0.3-0.6-1.7s1.2-4,2.6-6.3
	s1.3-7.2,2.3-8.8c1.2-1.8,3.3-2.9,5.4-2.9L644.5,150.9 M639.8,1039.1L639.8,1039.1 M644.5,140.9h-0.9c-5.7,0-11,2.9-14,7.7
	c-1.3,2.3-2.1,4.8-2.3,7.5c-0.1,0.6-0.2,1.4-0.3,1.9c-2.3,4-3.6,7.5-3.7,10.5c-8.1,12.2-19.3,29.7-29,52.4
	c-12.9,30.2-19.5,61.3-19.5,92.5V803l-57.2,69.4l-1.8,2.2l-0.4,2.8l-7.6,56.7l-0.1,0.6v0.6l-0.2,11.9l-0.1,8.3l8.1,1.7l58.8,12
	l12.1,21.5c1.6,6.8,5,13,9.8,18c-2,5.4-3.4,10.9-4.4,16.6c-0.2,1.8-0.5,3.3-0.6,4.7c-0.3,2-0.5,4.2-0.7,4.9c0.6-2.3,3.7-5.8,8.5-5.8
	v20h40.8l0,0v-20c0.6,0,1.2,0.1,1.8,0.2c-0.3,1.5-0.7,2.9-1.2,4.3c0.8-1.5,2.1-2.7,3.7-3.5c1.6,0.8,2.8,2,3.7,3.5
	c-0.5-1.4-0.9-2.9-1.2-4.3c0.6-0.1,1.2-0.2,1.8-0.2v20v-20v20h40.8v-20c4.7,0,7.8,3.4,8.5,5.8c-0.2-0.7-0.5-2.9-0.7-4.9
	c-0.2-1.4-0.4-3-0.6-4.7c-1-5.7-2.4-11.2-4.4-16.6c4-4.1,7.1-9.1,8.9-14.6l74.4-37.3l5.6-2.8l-0.1-6.3l-0.2-11.7v-0.6l-0.1-0.6
	l-9.3-68.7l-0.5-3.4l-2.4-2.4L713.3,806V313.4c-0.1-32.2-6.9-64-20-93.4c-8.6-19.6-19.5-38-32.5-54.9c-0.3-1.8-0.5-4.6-0.6-5.6
	C660.2,145.8,650.8,140.9,644.5,140.9L644.5,140.9z M641.6,1008.8c0.9-0.8,1.7-1.7,2.5-2.7c0.8,0.9,1.6,1.8,2.5,2.7
	c-0.8,2.5-1.7,5.4-2.5,8.2C643.3,1014.2,642.4,1011.3,641.6,1008.8z"/>
<path class="st5" d="M644.5,150.9c0.3,0,5.7,0.1,5.7,8.7c0,1.4,0.8,9.4,1.4,10c17.8,23,51.7,74.4,51.7,143.9v21.1h-83.1v1.1h83.1
	v474.5l57.9,57.1l9.3,68.8l0.2,11.7L692.3,987c0,0-2.1,12.7-12.3,18.1c0,0,5.2,12.7,6.5,21.4c1.2,8.7,1.3,12.5,2.8,12.5h-40.8
	c1.3,0,3.2-7.5,3.8-12.6c0.8-6.4,6.3-21.6,6.3-21.6c-4.9-2.1-8.7-6.3-10.1-11.5h-8.6c-1.5,5.2-5.2,9.4-10.1,11.5
	c0,0,5.5,15.2,6.3,21.6c0.6,5.1,2.5,12.6,3.8,12.6h-40.8c1.5,0,1.6-3.8,2.8-12.5s6.5-21.4,6.5-21.4c-10.2-5.4-12.3-18.1-12.3-18.1
	l-15.1-26.8l-63.2-12.9l0.2-11.9l7.6-56.7l59.5-72.1V313.4c0-69.4,33.5-119.4,49.2-142.9c0,0-0.6-0.3-0.6-1.7s1.2-4,2.6-6.3
	s1.3-7.2,2.3-8.8c1.2-1.8,3.3-2.9,5.4-2.9L644.5,150.9 M639.8,1039.1L639.8,1039.1 M644.5,140.9h-0.9c-5.7,0-11,2.9-14,7.7
	c-1.3,2.3-2.1,4.8-2.3,7.5c-0.1,0.6-0.2,1.4-0.3,1.9c-2.3,4-3.6,7.5-3.7,10.5c-8.1,12.2-19.3,29.7-29,52.4
	c-12.9,30.2-19.5,61.3-19.5,92.5V803l-57.2,69.4l-1.8,2.2l-0.4,2.8l-7.6,56.7l-0.1,0.6v0.6l-0.2,11.9l-0.1,8.3l8.1,1.7l58.8,12
	l12.1,21.5c1.6,6.8,5,13,9.8,18c-2,5.4-3.4,10.9-4.4,16.6c-0.2,1.8-0.5,3.3-0.6,4.7c-0.3,2-0.5,4.2-0.7,4.9c0.6-2.3,3.7-5.8,8.5-5.8
	v20h40.8l0,0v-20c0.6,0,1.2,0.1,1.8,0.2c-0.3,1.5-0.7,2.9-1.2,4.3c0.8-1.5,2.1-2.7,3.7-3.5c1.6,0.8,2.8,2,3.7,3.5
	c-0.5-1.4-0.9-2.9-1.2-4.3c0.6-0.1,1.2-0.2,1.8-0.2v20v-20v20h40.8v-20c4.7,0,7.8,3.4,8.5,5.8c-0.2-0.7-0.5-2.9-0.7-4.9
	c-0.2-1.4-0.4-3-0.6-4.7c-1-5.7-2.4-11.2-4.4-16.6c4-4.1,7.1-9.1,8.9-14.6l74.4-37.3l5.6-2.8l-0.1-6.3l-0.2-11.7v-0.6l-0.1-0.6
	l-9.3-68.7l-0.5-3.4l-2.4-2.4L713.3,806V313.4c-0.1-32.2-6.9-64-20-93.4c-8.6-19.6-19.5-38-32.5-54.9c-0.3-1.8-0.5-4.6-0.6-5.6
	C660.2,145.8,650.8,140.9,644.5,140.9L644.5,140.9z M641.6,1008.8c0.9-0.8,1.7-1.7,2.5-2.7c0.8,0.9,1.6,1.8,2.5,2.7
	c-0.8,2.5-1.7,5.4-2.5,8.2C643.3,1014.2,642.4,1011.3,641.6,1008.8z"/>
<path class="st5" d="M816.4,866.8c-7-9.8-50.3-52.5-68.2-69.3s-25.5-27.5-29-37s-11.1-48.6-14-65.1s-9.2-45.3-10.5-49.2
	s-5.4-26.4-7-35.9s-7.6-41.6-9.2-46.2s-5.9-21.1-10.2-33.5s-10.2-28.7-12-33.5s-6.7-8.7-12-8.7s-10.2,3.9-12,8.7s-7.8,21.1-12,33.5
	s-8.5,28.8-10.2,33.5s-7.6,36.8-9.2,46.2s-5.7,32-7,35.9S586,679,583,695.4s-10.5,55.7-14,65.1s-11.1,20.2-29,37
	s-61.3,59.5-68.3,69.3s-9.2,22-8.7,31.4s0.5,9.4,0.5,11.1v18.3c0,0,54.3,9.4,63.2,10.6s23.6,4.6,25.2,5.5s18.1,2.3,27.3,4.1
	s20.2,3.7,22.9,4.6v34.8l5.3,0.9l0.9,1.8h71.5l0.9-1.8l5.3-0.9v-34.8c2.7-0.9,13.7-2.8,22.9-4.6s25.7-3.2,27.3-4.1
	s16.3-4.3,25.2-5.5s63.2-10.6,63.2-10.6v-18.3c0-1.7,0-1.7,0.5-11.1S823.4,876.7,816.4,866.8z"/>
<path class="st0" d="M678.6,587c-6-28.4-18.5-67.8-18.5-67.8l-9-16.9H637l-9,16.9c0,0-12.5,39.4-18.4,67.8s-6.7,35.8-6.7,38.2v288.9
	c0,10.8,9.7,42.5,9.7,42.5h26.3v-52.4c0-2.2,3.2-2.6,5.3-2.6s5.3,0.4,5.3,2.6v52.5h26.3c0,0,9.7-31.7,9.7-42.5V625.2
	C685.3,622.8,684.5,615.5,678.6,587z M635.7,519.6c0.4-2.2,1.7-3.8,2.9-3.5s1.7,2.2,1.3,4.4s-1.7,3.8-2.9,3.6
	S635.3,521.8,635.7,519.6L635.7,519.6z M640,537.7c-0.5,1-1.7,1.4-2.7,0.9c-1-0.5-1.4-1.7-0.9-2.7c0.4-0.9,1.4-1.3,2.4-1
	C639.9,535.3,640.4,536.6,640,537.7z M644,539.5c-1.3,0.3-2.6-0.6-2.8-1.9c-0.3-1.3,0.6-2.6,1.9-2.8c1.3-0.3,2.6,0.6,2.8,1.9
	c0,0.2,0,0.3,0,0.5C646,538.3,645.2,539.4,644,539.5L644,539.5z M644,524c-1.2,0-2.1-1.8-2.1-4s0.9-4,2.1-4s2.1,1.8,2.1,4
	S645.2,524,644,524L644,524z M650.5,539.5c-1.2,0.6-2.6,0.1-3.2-1.1s-0.1-2.6,1.1-3.2s2.6-0.1,3.2,1.1c0.1,0.1,0.1,0.3,0.2,0.4
	C652.2,537.8,651.7,539,650.5,539.5L650.5,539.5z M651.1,524c-1.1,0.2-2.4-1.3-2.9-3.5s0.1-4.1,1.3-4.4s2.4,1.3,2.9,3.5
	S652.3,523.7,651.1,524L651.1,524z"/>
<polygon class="st5" points="623.1,597 625.4,590.2 632.6,582.9 640,580.5 641.6,570.2 629,575.9 618.1,584.7 615.7,597.9 "/>
<rect x="633.2" y="606.4" class="st5" width="9.8" height="8.8"/>
<path class="st0" d="M601.4,645.1v257.1h-65.2v8.2h-2v-8.1h-69.1v-2.6c0-2.1,3.2-7.8,4.7-11.7s3.7-8,4.4-10.8s7.6-9.2,11.3-12.7
	s91.5-95.7,91.5-95.7S592.2,677.8,601.4,645.1z"/>
<path class="st0" d="M601.4,913.4v37.9c0,0-17.8-4-23.1-4.8s-23-2.9-25.4-3.7s-15.1-4.2-16.9-4.4v-28L601.4,913.4z"/>
<path class="st0" d="M534.2,910.4v27.8c0,0-24.9-3.4-37.5-5.8s-30.1-5.6-32.3-5.8v-20.3L534.2,910.4z"/>
<polygon class="st5" points="665,597 662.8,590.2 655.5,582.9 648.2,580.5 646.5,570.2 659.1,575.9 670,584.7 672.5,597.9 "/>
<rect x="645.1" y="606.4" class="st5" width="9.8" height="8.8"/>
<path class="st0" d="M686.7,645.1v257.1h65.2v8.2h2v-8.1H823v-2.6c0-2.1-3.2-7.8-4.7-11.7s-3.7-8-4.4-10.8s-7.6-9.2-11.3-12.7
	s-91.5-95.7-91.5-95.7S695.9,677.8,686.7,645.1z"/>
<path class="st0" d="M686.7,913.4v37.9c0,0,17.8-4,23.1-4.8s23-2.9,25.4-3.7s15.1-4.2,16.9-4.4v-28L686.7,913.4z"/>
<path class="st0" d="M753.9,910.4v27.8c0,0,24.9-3.4,37.5-5.8s30.1-5.6,32.3-5.8v-20.3L753.9,910.4z"/>
<path class="st0" d="M612.2,958.3c-3.9-12.3-7-24.7-9.4-37.4v65.2h20.6V959L612.2,958.3z M607,958.5c0.9,0,1.7,0.8,1.7,1.7
	s-0.8,1.7-1.7,1.7s-1.7-0.8-1.7-1.7v0C605.3,959.3,606,958.5,607,958.5C607,958.5,607,958.5,607,958.5L607,958.5z M607,965
	c0.9,0,1.7,0.8,1.7,1.7s-0.8,1.7-1.7,1.7s-1.7-0.8-1.7-1.7v0C605.3,965.8,606,965,607,965C607,965,607,965,607,965L607,965z
	 M604.9,982.8c-0.6,0-1-0.4-1-1s0.4-1,1-1s1,0.4,1,1C605.9,982.3,605.5,982.8,604.9,982.8C604.9,982.8,604.9,982.8,604.9,982.8
	L604.9,982.8z M605.3,973.2c0-0.9,0.8-1.7,1.8-1.7c0.9,0,1.7,0.8,1.7,1.8c0,0.9-0.8,1.6-1.7,1.7C606.1,975,605.3,974.3,605.3,973.2
	C605.2,973.3,605.2,973.3,605.3,973.2L605.3,973.2z M609.1,982.3c-0.6,0-1-0.4-1-1s0.4-1,1-1s1,0.4,1,1
	C610.1,981.9,609.7,982.3,609.1,982.3C609.1,982.3,609.1,982.3,609.1,982.3L609.1,982.3z"/>
<path class="st0" d="M676,958.3l-11.3,0.7v27.1h20.6v-65.2C683,933.6,679.8,946,676,958.3z M681.2,958.5c0.9,0,1.7,0.8,1.7,1.7
	s-0.8,1.7-1.7,1.7s-1.7-0.8-1.7-1.7v0C679.4,959.3,680.2,958.5,681.2,958.5L681.2,958.5z M681.2,965c0.9,0,1.7,0.8,1.7,1.7
	s-0.8,1.7-1.7,1.7s-1.7-0.8-1.7-1.7v0C679.4,965.8,680.2,965,681.2,965L681.2,965z M679,982.3c-0.6,0-1-0.4-1-1s0.4-1,1-1s1,0.4,1,1
	S679.6,982.3,679,982.3z M679.4,973.2c0-0.9,0.8-1.7,1.7-1.7s1.7,0.8,1.7,1.7s-0.8,1.7-1.7,1.7h0
	C680.2,974.9,679.4,974.2,679.4,973.2L679.4,973.2z M683.2,982.8c-0.6,0-1-0.4-1-1s0.4-1,1-1s1,0.4,1,1S683.8,982.8,683.2,982.8z"/>
<ellipse transform="matrix(0.9778 -0.2096 0.2096 0.9778 -192.2354 155.6226)" class="st0" cx="638" cy="984.7" rx="0.8" ry="1.2"/>
<polygon class="st0" points="624.7,986.1 635.1,986.1 635.1,983.5 624.7,977.7 "/>
<path class="st0" d="M640.2,905.5c0,0,0.7,1.3,1.6,1.3v83.1h-1.2L640.2,905.5z"/>
<ellipse transform="matrix(0.2096 -0.9778 0.9778 0.2096 -449.0005 1413.9041)" class="st0" cx="650.1" cy="984.7" rx="1.2" ry="0.8"/>
<polygon class="st0" points="663.4,986.1 653,986.1 653,983.5 663.4,977.7 "/>
<path class="st0" d="M648,905.5c0,0-0.7,1.3-1.6,1.3v83.1h1.2L648,905.5z"/>
<use xlink:href="#Новый_символ_2"  width="62.9" height="62.9" id="Новый_символ_2-3" x="-31.5" y="-31.5" transform="matrix(1.11 0 0 1.11 844.4562 528.0062)" style="overflow:visible;"/>
<use xlink:href="#Новый_символ_2"  width="62.9" height="62.9" x="-31.5" y="-31.5" transform="matrix(0.56 0 0 0.56 375.4704 602.7504)" style="overflow:visible;"/>
<use xlink:href="#Новый_символ_2"  width="62.9" height="62.9" x="-31.5" y="-31.5" transform="matrix(0.45 0 0 0.45 259.4293 771.7092)" style="overflow:visible;"/>
<use xlink:href="#Новый_символ_2"  width="62.9" height="62.9" x="-31.5" y="-31.5" transform="matrix(0.56 0 0 0.56 516.5604 383.0404)" style="overflow:visible;"/>
<use xlink:href="#Новый_символ_2"  width="62.9" height="62.9" x="-31.5" y="-31.5" transform="matrix(0.56 0 0 0.56 1036.5304 753.7004)" style="overflow:visible;"/>
<use xlink:href="#Новый_символ_2"  width="62.9" height="62.9" x="-31.5" y="-31.5" transform="matrix(0.69 0 0 0.69 915.0109 620.1509)" style="overflow:visible;"/>
<use xlink:href="#Новый_символ_2"  width="62.9" height="62.9" x="-31.5" y="-31.5" transform="matrix(0.69 0 0 0.69 770.5309 361.0009)" style="overflow:visible;"/>
<use xlink:href="#Новый_символ_2"  width="62.9" height="62.9" x="-31.5" y="-31.5" transform="matrix(1.08 0 0 1.08 452.7222 522.8922)" style="overflow:visible;"/>
</svg>
