<?xml version="1.0" encoding="utf-8"?>
<!-- Generator: Adobe Illustrator 21.0.0, SVG Export Plug-In . SVG Version: 6.00 Build 0)  -->
<svg version="1.1" id="Слой_1" xmlns="http://www.w3.org/2000/svg" xmlns:xlink="http://www.w3.org/1999/xlink" x="0px" y="0px"
	 viewBox="0 0 1288.1 1288.1" style="enable-background:new 0 0 1288.1 1288.1;" xml:space="preserve">
<style type="text/css">
	.st0{fill:#FFFFFF;}
	.st1{clip-path:url(#SVGID_2_);}
	.st2{fill:#C34435;}
	.st3{fill:#181A3E;stroke:#C34435;stroke-width:20;stroke-miterlimit:10;}
	.st4{clip-path:url(#SVGID_4_);}
	.st5{clip-path:url(#SVGID_6_);}
	.st6{fill:#181A3E;}
	.st7{fill:#FFFFFF;stroke:#181A3E;stroke-width:10;stroke-miterlimit:10;}
</style>
<symbol  id="Новый_символ_2" viewBox="-31.5 -31.5 62.9 62.9">
	<polygon class="st0" points="0,-1.6 31.5,0 0,1.6 -31.5,0 	"/>
	<polygon class="st0" points="-1.6,0 0,-31.5 1.6,0 0,31.5 	"/>
	<polygon class="st0" points="-1.1,-1.1 -16,16 1.1,1.1 16,-16 	"/>
	<polygon class="st0" points="-1.1,1.1 16,16 1.1,-1.1 -16,-16 	"/>
</symbol>
<title>red-blue no letters, stars placement from example, rays small</title>
<g>
	<defs>
		<circle id="SVGID_1_" cx="644.7" cy="-624.7" r="429.3"/>
	</defs>
	<clipPath id="SVGID_2_">
		<use xlink:href="#SVGID_1_"  style="overflow:visible;"/>
	</clipPath>
	<g class="st1">
		<polygon class="st2" points="643.4,-474.8 657.8,-817.8 657.8,-474.1 686.5,-815.1 672.1,-472 715,-809.7 686.3,-468.7 
			743.2,-801.6 700.3,-464 771.1,-790.9 714.1,-457.9 798.4,-777.6 727.6,-450.6 825.1,-761.7 740.8,-442.1 851.1,-743.3 
			753.6,-432.3 876.3,-722.5 766,-421.3 900.5,-699.4 777.9,-409.2 923.8,-674 789.2,-395.9 945.9,-646.5 800,-381.7 966.9,-617 
			810.2,-366.4 986.6,-585.5 819.7,-350.2 1004.9,-552.3 828.5,-333.2 1021.8,-517.4 836.5,-315.3 1037.2,-481 843.9,-296.8 
			1051,-443.1 850.4,-277.5 1063.2,-404.1 856.1,-257.8 1073.8,-364 861,-237.4 1082.7,-323 865,-216.7 1089.8,-281.2 868.1,-195.7 
			1095.2,-238.8 870.3,-174.4 1098.8,-196 871.7,-152.9 1100.6,-152.9 872.2,-131.3 1100.6,-109.8 871.7,-109.8 1098.8,-66.7 
			870.3,-88.3 1095.2,-23.9 868.1,-67 1089.8,18.5 865,-45.9 1082.7,60.3 861,-25.2 1073.8,101.3 856.1,-4.9 1063.2,141.4 
			850.4,14.9 1051,180.5 843.9,34.1 1037.2,218.3 836.5,52.7 1021.8,254.7 828.5,70.5 1004.9,289.6 819.7,87.6 986.6,322.9 
			810.2,103.8 966.9,354.3 800,119 945.9,383.9 789.2,133.3 923.8,411.4 777.9,146.5 900.5,436.7 766,158.6 876.3,459.9 
			753.6,169.6 851.1,480.6 740.8,179.4 825.1,499 727.6,188 798.4,514.9 714.1,195.3 771.1,528.2 700.3,201.3 743.2,539 686.3,206 
			715,547 672.1,209.4 686.5,552.5 657.8,211.4 657.8,555.2 643.4,212.1 629.1,555.2 629.1,211.4 600.4,552.5 614.8,209.4 
			571.9,547 600.6,206 543.7,539 586.6,201.3 515.8,528.2 572.8,195.3 488.5,514.9 559.2,188 461.8,499 546.1,179.4 435.8,480.6 
			533.3,169.6 410.6,459.9 520.9,158.6 386.3,436.7 509,146.5 363.1,411.4 497.6,133.3 340.9,383.9 486.9,119 320,354.3 
			476.7,103.8 300.3,322.9 467.2,87.6 282,289.6 458.4,70.5 265.1,254.7 450.3,52.7 249.7,218.3 443,34.1 235.9,180.5 436.5,14.9 
			223.6,141.4 430.8,-4.9 213.1,101.3 425.9,-25.2 204.2,60.3 421.9,-45.9 197,18.5 418.8,-67 191.6,-23.9 416.5,-88.3 188.1,-66.7 
			415.2,-109.8 186.2,-109.8 414.7,-131.3 186.2,-152.9 415.2,-152.9 188.1,-196 416.5,-174.4 191.6,-238.8 418.8,-195.7 
			197,-281.2 421.9,-216.7 204.2,-323 425.9,-237.4 213.1,-364 430.8,-257.8 223.6,-404.1 436.5,-277.5 235.9,-443.1 443,-296.8 
			249.7,-481 450.3,-315.3 265.1,-517.4 458.4,-333.2 282,-552.3 467.2,-350.2 300.3,-585.5 476.7,-366.4 320,-617 486.9,-381.7 
			340.9,-646.5 497.6,-395.9 363.1,-674 509,-409.2 386.3,-699.4 520.9,-421.3 410.6,-722.5 533.3,-432.3 435.8,-743.3 
			546.1,-442.1 461.8,-761.7 559.2,-450.6 488.5,-777.6 572.8,-457.9 515.8,-790.9 586.6,-464 543.7,-801.6 600.6,-468.7 
			571.9,-809.7 614.8,-472 600.4,-815.1 629.1,-474.1 629.1,-817.8 		"/>
	</g>
</g>
<circle class="st3" cx="644.7" cy="719.7" r="429.3"/>
<path class="st2" d="M644.5,150.9c0.3,0,5.7,0.1,5.7,8.7c0,1.4,0.8,9.4,1.4,10c17.8,23,51.7,74.4,51.7,143.9v111.1l6.2,14v6.5h-1.1
	v5l10.3,15.4c0,0,8.3,1.1,11.9,6.5s27.6,41.2,29,43s1.3,4.8,0,5.5c-0.9,0.5-1.8,1.1-2.7,1.8l11.2,14.6l3.4,22.3V633l-9.7,15.4v144
	l2.8,7.3h7.9c3.8,0,4.1,10-0.2,10h-2.8l8.5,10.5v7l36.8,36.8c4,4,10.3,17.4,10.3,33.3v30.7l-53.5,9.9v71.4l-9.1,12.4h-10
	c0,0,4.7,8.9,4.7,17.7h-63.1c-0.1-6.2,1.5-12.4,4.4-17.9H691c0-4.7,2.1-6.3,2.1-6.3l-0.8-0.6V987c0,0-2.1,12.7-12.3,18.1
	c0,0,5.2,12.7,6.5,21.4c1.2,8.7,1.3,12.5,2.8,12.5h-40.9c1.3,0,3.2-7.5,3.8-12.6c0.8-6.4,6.3-21.6,6.3-21.6
	c-4.9-2.1-8.7-6.3-10.1-11.5c0,0-1.2,48-2.5,48h-3.5c-1.3,0-2.5-48-2.5-48c-1.5,5.2-5.2,9.4-10.1,11.5c0,0,5.5,15.2,6.3,21.6
	c0.6,5.1,2.5,12.6,3.8,12.6h-40.8c1.5,0,1.6-3.8,2.8-12.5s6.5-21.4,6.5-21.4c-10.2-5.4-12.3-18.1-12.3-18.1v27.2l-0.8,0.6
	c0,0,2.1,1.6,2.1,6.3h-7.7c2.9,5.5,4.4,11.7,4.4,17.9h-63.1c0-8.7,4.7-17.7,4.7-17.7h-10l-9.1-12.4v-71.4l-53.5-9.9v-30.7
	c0-16,6.3-29.3,10.3-33.3l36.8-36.8v-7l8.5-10.5h-2.7c-4.3,0-4-10-0.2-10h7.9l2.8-7.3v-144l-9.6-15.3v-73.8l3.4-22.3l11.2-14.6
	c-0.9-0.6-1.8-1.2-2.7-1.8c-1.3-0.7-1.4-3.7,0-5.5s25.4-37.6,29-43s11.9-6.5,11.9-6.5l10.3-15.4v-5.1h-1.1v-6.5l6.2-14v-111
	c0-69.4,33.4-119.4,49.2-142.9c0,0-0.6-0.3-0.6-1.7s1.2-4,2.6-6.3s1.3-7.2,2.3-8.8c1.2-1.8,3.3-2.9,5.4-2.9L644.5,150.9
	 M639.8,1039.1L639.8,1039.1 M644.5,130.9h-0.9c-9.1,0-17.6,4.7-22.5,12.4c-2,3.4-3.2,7.2-3.7,11.1v0.1c-1.9,3.2-3.2,6.8-3.9,10.5
	c-11.1,16.4-20.6,33.8-28.5,51.9c-13.5,31.4-20.3,63.9-20.3,96.5v106.9l-4.5,10.1l-1.7,3.9v11.3l-1.8,2.7
	c-6.4,2.5-11.9,6.8-15.9,12.4l-5.4,8c-7,10.4-21.4,31.8-23.2,34.4c-3.6,4.9-5.3,11-4.8,17.1l-3.4,4.5l-3.1,4.1l-0.8,5.1l-3.4,22.3
	l-0.2,1.5v81.1l3.1,4.9l6.6,10.5v127.6c-4.6,2.2-8.3,5.8-10.6,10.2c-2,3.9-3,8.3-3,12.7c0,1.6,0.1,3.2,0.4,4.7l-3,3.6v5.7l-31,30.9
	c-7.8,7.8-16.2,26-16.2,47.5v47.4l16.4,3l37.1,6.8v61.3l3.9,5.3l9.1,12.4l1.6,2.1c-0.1,1.2-0.1,2.4-0.1,3.7v20H633
	c2.9,1.5,6,2.3,9.3,2.3h3.5c3.2,0,6.4-0.8,9.3-2.3h122.3v-20c0-1.2,0-2.5-0.2-3.7l1.6-2.1l9.1-12.4l3.9-5.3v-61.3l37.2-6.8l16.4-3
	v-47.3c0-21.5-8.4-39.7-16.2-47.5l-31-30.9V813l-2.9-3.6c0.3-1.6,0.4-3.1,0.4-4.7c0-4.4-1-8.8-3-12.7c-2.3-4.5-6.1-8.1-10.6-10.2
	V654.1l6.6-10.5l3.1-4.9v-81.1l-0.2-1.5l-3.4-22.3l-0.8-5.1l-3.1-4.1l-3.4-4.5c0.5-6.1-1.2-12.2-4.8-17.1
	c-1.8-2.5-16.1-23.9-23.1-34.2l-5.5-8.2c-3.9-5.6-9.5-10-15.9-12.4l-1.8-2.7v-11.3l-1.7-3.9l-4.5-10.1V313.4
	c-0.1-33.6-7.2-66.8-20.8-97.4c-8.5-19.4-19.3-37.8-32.1-54.8c-0.1-0.8-0.2-1.5-0.2-2C670,140.8,656.9,130.8,644.5,130.9
	L644.5,130.9z"/>
<g>
	<defs>
		<circle id="SVGID_3_" cx="644.7" cy="719.7" r="429.3"/>
	</defs>
	<clipPath id="SVGID_4_">
		<use xlink:href="#SVGID_3_"  style="overflow:visible;"/>
	</clipPath>
	<g class="st4">
		<polygon class="st2" points="643.4,931.1 657.8,667.8 657.8,931.7 686.5,669.9 672.1,933.2 715,674 686.3,935.8 743.2,680.2 
			700.3,939.4 771.1,688.5 714.1,944 798.4,698.7 727.6,949.7 825.1,710.9 740.8,956.2 851.1,725 753.6,963.8 876.3,741 766,972.2 
			900.5,758.7 777.9,981.5 923.8,778.2 789.2,991.6 945.9,799.3 800,1002.6 966.9,822 810.2,1014.3 986.6,846.1 819.7,1026.7 
			1004.9,871.6 828.5,1039.8 1021.8,898.4 836.5,1053.5 1037.2,926.4 843.9,1067.8 1051,955.4 850.4,1082.5 1063.2,985.4 
			856.1,1097.7 1073.8,1016.2 861,1113.3 1082.7,1047.7 865,1129.2 1089.8,1079.7 868.1,1145.3 1095.2,1112.3 870.3,1161.7 
			1098.8,1145.1 871.7,1178.2 1100.6,1178.2 872.2,1194.7 1100.6,1211.3 871.7,1211.3 1098.8,1244.3 870.3,1227.8 1095.2,1277.2 
			868.1,1244.1 1089.8,1309.7 865,1260.3 1082.7,1341.8 861,1276.2 1073.8,1373.3 856.1,1291.8 1063.2,1404.1 850.4,1307 
			1051,1434.1 843.9,1321.7 1037.2,1463.1 836.5,1336 1021.8,1491.1 828.5,1349.7 1004.9,1517.8 819.7,1362.8 986.6,1543.4 
			810.2,1375.2 966.9,1567.5 800,1386.9 945.9,1590.2 789.2,1397.8 923.8,1611.3 777.9,1408 900.5,1630.8 766,1417.3 876.3,1648.5 
			753.6,1425.7 851.1,1664.5 740.8,1433.2 825.1,1678.6 727.6,1439.8 798.4,1690.8 714.1,1445.4 771.1,1701 700.3,1450.1 
			743.2,1709.2 686.3,1453.7 715,1715.4 672.1,1456.2 686.5,1719.6 657.8,1457.8 657.8,1721.7 643.4,1458.3 629.1,1721.7 
			629.1,1457.8 600.4,1719.6 614.8,1456.2 571.9,1715.4 600.6,1453.7 543.7,1709.2 586.6,1450.1 515.8,1701 572.8,1445.4 
			488.5,1690.8 559.2,1439.8 461.8,1678.6 546.1,1433.2 435.8,1664.5 533.3,1425.7 410.6,1648.5 520.9,1417.3 386.3,1630.8 
			509,1408 363.1,1611.3 497.6,1397.8 340.9,1590.2 486.9,1386.9 320,1567.5 476.7,1375.2 300.3,1543.4 467.2,1362.8 282,1517.8 
			458.4,1349.7 265.1,1491.1 450.3,1336 249.7,1463.1 443,1321.7 235.9,1434.1 436.5,1307 223.6,1404.1 430.8,1291.8 213.1,1373.3 
			425.9,1276.2 204.2,1341.8 421.9,1260.3 197,1309.7 418.8,1244.1 191.6,1277.2 416.5,1227.8 188.1,1244.3 415.2,1211.3 
			186.2,1211.3 414.7,1194.7 186.2,1178.2 415.2,1178.2 188.1,1145.1 416.5,1161.7 191.6,1112.3 418.8,1145.3 197,1079.7 
			421.9,1129.2 204.2,1047.7 425.9,1113.3 213.1,1016.2 430.8,1097.7 223.6,985.4 436.5,1082.5 235.9,955.4 443,1067.8 249.7,926.4 
			450.3,1053.5 265.1,898.4 458.4,1039.8 282,871.6 467.2,1026.7 300.3,846.1 476.7,1014.3 320,822 486.9,1002.6 340.9,799.3 
			497.6,991.6 363.1,778.2 509,981.5 386.3,758.7 520.9,972.2 410.6,741 533.3,963.8 435.8,725 546.1,956.2 461.8,710.9 
			559.2,949.7 488.5,698.7 572.8,944 515.8,688.5 586.6,939.4 543.7,680.2 600.6,935.8 571.9,674 614.8,933.2 600.4,669.9 
			629.1,931.7 629.1,667.8 		"/>
	</g>
</g>
<g>
	<defs>
		<circle id="SVGID_5_" cx="644.7" cy="719.7" r="429.3"/>
	</defs>
	<clipPath id="SVGID_6_">
		<use xlink:href="#SVGID_5_"  style="overflow:visible;"/>
	</clipPath>
	<g class="st5">
		<path class="st6" d="M449.2,1173.8c-28.9,0-53.9-16.9-63.8-43.1c-6.4-16.9-5.6-35.7,2.2-52c5.5-11.7,14.2-21.6,25-28.7l3.1-11.2
			c4.4-15.9,14.9-28,28.7-33.2c5-1.9,10.2-2.8,15.5-2.8c5.5,0,10.9,1,16.1,2.8c6.1-13.5,17.2-24,31.1-29.4
			c6.2-2.4,12.8-3.6,19.5-3.6c25.8,0,49.8,17.7,59.8,44c12.9,34-1.7,71.1-32.5,82.8c-6.2,2.4-12.8,3.6-19.5,3.6l0,0
			c-4.7,0-9.4-0.6-14-1.8c1.4,29.2-16.9,56.8-45.6,67.8C466.5,1172.2,457.9,1173.8,449.2,1173.8z M441.9,1038.7
			c-6.3,0-12.5,1.8-17.9,5.1c0.9-0.4,1.8-0.8,2.8-1.1c5.1-1.9,10.3-3.3,15.7-4L441.9,1038.7z"/>
		<path class="st2" d="M526.5,977.7c23.1,0,45.7,15.8,55.1,40.8c11.9,31.5-1.3,65.7-29.7,76.4c-5.7,2.1-11.7,3.2-17.7,3.2
			c-6.8,0-13.5-1.3-19.8-3.9c5,29.1-12,59-41.6,70.2c-7.6,2.9-15.6,4.4-23.8,4.4c-25.8,0-49.8-15.1-59.1-39.9
			c-12.2-32.3,5-68.8,38.5-81.5c7.6-2.9,15.6-4.4,23.7-4.4c7.4,0,14.7,1.2,21.6,3.7c-9.4-8.3-20.8-13-32-13c-7.6,0-15,2.2-21.4,6.4
			c3.9-13.9,12.8-25,25.6-29.9c4.4-1.7,9-2.5,13.7-2.5c6.5,0.1,12.9,1.5,18.8,4.3c5.3-14.2,15.8-25.7,30.2-31.1
			C514.5,978.8,520.5,977.7,526.5,977.7 M526.5,967.7c-7.3,0-14.5,1.3-21.2,3.9c-13.6,5.2-25,15.1-31.9,28
			c-4.4-1.2-8.9-1.8-13.5-1.8c-5.9,0-11.8,1.1-17.3,3.2c-15.3,5.8-26.8,19.1-31.7,36.6l-2.6,9.4c-27.3,19-39.6,54.1-27.6,85.6
			c5.3,13.9,14.8,25.8,27.3,34c12.2,8.1,26.6,12.4,41.2,12.3c9.3,0,18.6-1.7,27.3-5c28.7-10.9,47.6-37.4,48.9-66.3
			c3,0.4,6,0.7,9,0.7c7.3,0,14.5-1.3,21.2-3.9c16.4-6.2,29-19,35.7-36.2c6.5-17.1,6.4-36.1-0.2-53.1
			C580.3,986.7,554.4,967.7,526.5,967.7L526.5,967.7z"/>
		<path class="st6" d="M838.9,1173.8c-8.7,0-17.4-1.6-25.5-4.7c-28.8-10.9-47-38.6-45.6-67.8c-4.6,1.2-9.3,1.7-14,1.8
			c-6.7,0-13.3-1.2-19.5-3.6c-30.8-11.7-45.4-48.8-32.5-82.8c10-26.3,34-44,59.8-44c6.7,0,13.3,1.2,19.5,3.6
			c13.8,5.3,25,15.8,31.1,29.3c5.2-1.8,10.6-2.8,16.1-2.8c5.3,0,10.5,0.9,15.5,2.8c13.8,5.2,24.2,17.3,28.7,33.2l3.1,11.2
			c26.5,17.5,38.6,50.8,27.2,80.7C892.8,1156.9,867.8,1173.8,838.9,1173.8z M845.7,1038.7c5.4,0.7,10.6,2.1,15.7,4
			c0.9,0.4,1.9,0.7,2.8,1.1c-5.3-3.4-11.5-5.2-17.9-5.1L845.7,1038.7z"/>
		<path class="st2" d="M761.6,977.7c6,0,12,1.1,17.7,3.2c14.4,5.5,24.9,17,30.2,31.1c5.9-2.8,12.3-4.3,18.8-4.3
			c4.7,0,9.3,0.8,13.7,2.5c12.8,4.9,21.8,16,25.6,29.9c-6.3-4.2-13.8-6.5-21.4-6.4c-11.2,0-22.5,4.7-32,13
			c6.9-2.4,14.2-3.7,21.6-3.7c8.1,0,16.1,1.5,23.7,4.4c33.5,12.7,50.8,49.2,38.5,81.5c-9.4,24.8-33.4,39.9-59.2,39.9
			c-8.1,0-16.2-1.5-23.8-4.4c-29.7-11.2-46.6-41.1-41.6-70.2c-6.3,2.5-13,3.8-19.8,3.9c-6,0-12-1.1-17.7-3.2
			c-28.3-10.7-41.6-44.9-29.7-76.4C715.9,993.4,738.5,977.7,761.6,977.7 M761.6,967.7L761.6,967.7L761.6,967.7
			c-27.9,0-53.8,19-64.5,47.2c-13.9,36.6,2,76.6,35.5,89.3c6.8,2.6,14,3.9,21.2,3.9c3,0,6-0.2,9-0.7c1.2,28.9,20.1,55.4,48.9,66.3
			c8.7,3.3,18,5,27.3,5c14.7,0,29-4.2,41.2-12.3c12.4-8.2,22-20.1,27.3-34c12-31.6-0.3-66.6-27.6-85.6l-2.6-9.4
			c-4.9-17.4-16.4-30.8-31.7-36.6c-5.5-2.1-11.4-3.2-17.3-3.2c-4.6,0-9.1,0.6-13.5,1.8c-6.9-12.9-18.2-22.8-31.9-28
			C776.1,968.9,768.9,967.6,761.6,967.7L761.6,967.7z"/>
		<rect x="500.8" y="1015.4" class="st6" width="286.4" height="153.9"/>
		<path class="st2" d="M595,1030.7c0,0-17.8,32.3,31.5,104.4c0,0-1-19.2,5.3-31.1c0,0,16.5,42,17.8,56.8c0,0,23.2-48.3,18.6-80.7
			c0,0,14.7,14.4,9.7,31.6c0,0,31.2-26.5,21.4-80.7L595,1030.7z"/>
		<path class="st2" d="M690.9,1030.8c0,0-11.4,20.7,20.3,67.1c0,0-0.7-12.3,3.4-20c0,0,10.6,27,11.4,36.5c0,0,14.9-31.1,12-51.8
			c0,0,9.5,9.2,6.2,20.3c0,0,20.1-17,13.8-51.9L690.9,1030.8z"/>
		<path class="st2" d="M529.7,1030.8c0,0-11.4,20.7,20.3,67.1c0,0-0.7-12.3,3.4-20c0,0,10.6,27,11.4,36.5c0,0,14.9-31.1,12-51.8
			c0,0,9.5,9.2,6.2,20.3c0,0,20.1-17,13.8-51.9L529.7,1030.8z"/>
	</g>
</g>
<path class="st6" d="M639.8,988.8c0,0,1.2,52.6,2.5,52.6h3.5c1.3,0,2.5-52.6,2.5-52.6"/>
<path class="st7" d="M585.1,940.4V444.9h2.7v-24.5l-8.7,18.1v6.5h1.1v5.1l-10.3,15.4c0,0-8.3,1.1-11.9,6.5s-27.6,41.2-29,43
	s-1.3,4.8,0,5.5c0.9,0.5,1.8,1.1,2.7,1.8l-11.2,14.6l-3.4,22.3V633l9.7,15.4v144l-2.8,7.3H516c-3.8,0-4.1,10,0.2,10h2.7l-8.5,10.5v7
	l-36.8,36.8c-4,4-10.3,17.4-10.3,33.3v30.7l53.5,9.9v71.4l9.1,12.4h10c0,0-4.7,8.9-4.7,17.7h63.1c0.1-6.2-1.5-12.4-4.4-17.9h7.7
	c0-4.7-2.1-6.3-2.1-6.3l0.8-0.6V987c0,0-3-3.9-3-19.6c-1.6-2-4.1-3.2-6.7-3.1V956c0,0-19.6-6.5-26.6-6.9s-15.6-2.6-18-3.1
	s-7.7-1.2-7.7-1.2v-6.7H532v6.7h-13.5v-11.5"/>
<path class="st7" d="M703.1,940.4V444.9h-2.7v-24.5l8.7,18.1v6.5H708v5.1l10.3,15.4c0,0,8.3,1.1,11.9,6.5s27.6,41.2,29,43
	s1.3,4.8,0,5.5c-0.9,0.5-1.8,1.1-2.7,1.8l11.2,14.6l3.4,22.3V633l-9.7,15.4v144l2.8,7.3h7.9c3.8,0,4.1,10-0.2,10h-2.7l8.5,10.5v7
	l36.8,36.8c4,4,10.3,17.4,10.3,33.3v30.7l-53.5,9.9v71.4l-9.1,12.4h-10c0,0,4.7,8.9,4.7,17.7h-63.1c-0.1-6.2,1.5-12.4,4.4-17.9h-7.7
	c0-4.7,2.1-6.3,2.1-6.3l-0.8-0.6V987c0,0,3-3.9,3-19.6c1.6-2,4.1-3.2,6.7-3.1V956c0,0,19.6-6.5,26.6-6.9s15.6-2.6,18-3.1
	s7.7-1.2,7.7-1.2v-6.7h2.2v6.7h13.4v-11.5"/>
<path class="st0" d="M648.4,1044.1v-10l0,0V1044.1L648.4,1044.1v-10c-1.4,0-2.7,0.6-3.5,1.8c0.6-1,1.8-5.7,2.3-10
	c0.6-4.9,3.4-13.6,5.2-18.8c-3.2-2.3-5.7-5.3-7.4-8.8h-1.8c-1.7,3.5-4.2,6.5-7.4,8.8c1.8,5.2,4.6,13.9,5.2,18.8
	c0.5,4.3,1.8,8.9,2.3,10c-0.8-1.1-2.1-1.8-3.5-1.8v10h-40.9v-10c-1.5,0-3,0.8-3.7,2.2c0.4-1.9,0.7-3.8,0.9-5.7
	c0.2-1.4,0.4-2.9,0.6-4.7c0.9-6.2,3.6-14.1,5.3-18.8c-7.7-6.1-10.3-15.3-10.9-18.3l-13.6-24.2l-65.1-13.3l0.3-16.3l7.8-58.4
	l59.3-71.8V313.4c0-69,31.9-118.6,48.6-143.5c0-0.3-0.1-0.7-0.1-1c0-2.9,1.8-6.4,3.3-8.9c0.3-1,0.6-2.1,0.7-3.2
	c0.2-2,0.7-3.9,1.6-5.6c2.1-3.3,5.8-5.3,9.7-5.3h0.9c3.7,0,10.7,2.9,10.7,13.7c0.2,2.5,0.4,5.1,0.8,7.6c24,31,52.2,81.4,52.2,146.3
	v494.7l57.6,56.8l9.6,70.7l0.3,15.1l-79.1,39.7c-1.1,3.9-4,11.5-10.5,16.7c1.7,4.6,4.4,12.5,5.3,18.8c0.2,1.8,0.5,3.3,0.6,4.7
	c0.2,1.9,0.5,3.8,0.9,5.7c-0.7-1.4-2.1-2.2-3.7-2.2v10L648.4,1044.1z M639.7,1044.1v-10V1044.1z"/>
<path class="st6" d="M644.5,150.9c0.3,0,5.7,0.1,5.7,8.7c0,1.4,0.8,9.4,1.4,10c17.8,23,51.7,74.4,51.7,143.9v21.1h-83.1v1.1h83.1
	v474.5l57.9,57.1l9.3,68.8l0.2,11.7L692.3,987c0,0-2.1,12.7-12.3,18.1c0,0,5.2,12.7,6.5,21.4c1.2,8.7,1.3,12.5,2.8,12.5h-40.8
	c1.3,0,3.2-7.5,3.8-12.6c0.8-6.4,6.3-21.6,6.3-21.6c-4.9-2.1-8.7-6.3-10.1-11.5h-8.6c-1.5,5.2-5.2,9.4-10.1,11.5
	c0,0,5.5,15.2,6.3,21.6c0.6,5.1,2.5,12.6,3.8,12.6h-40.8c1.5,0,1.6-3.8,2.8-12.5s6.5-21.4,6.5-21.4c-10.2-5.4-12.3-18.1-12.3-18.1
	l-15.1-26.8l-63.2-12.9l0.2-11.9l7.6-56.7l59.5-72.1V313.4c0-69.4,33.5-119.4,49.2-142.9c0,0-0.6-0.3-0.6-1.7s1.2-4,2.6-6.3
	s1.3-7.2,2.3-8.8c1.2-1.8,3.3-2.9,5.4-2.9L644.5,150.9 M639.8,1039.1L639.8,1039.1 M644.5,140.9h-0.9c-5.7,0-11,2.9-14,7.7
	c-1.3,2.3-2.1,4.8-2.3,7.5c-0.1,0.6-0.2,1.4-0.3,1.9c-2.3,4-3.6,7.5-3.7,10.5c-8.1,12.2-19.3,29.7-29,52.4
	c-12.9,30.2-19.5,61.3-19.5,92.5V803l-57.2,69.4l-1.8,2.2l-0.4,2.8l-7.6,56.7l-0.1,0.6v0.6l-0.2,11.9l-0.1,8.3l8.1,1.7l58.8,12
	l12.1,21.5c1.6,6.8,5,13,9.8,18c-2,5.4-3.4,10.9-4.4,16.6c-0.2,1.8-0.5,3.3-0.6,4.7c-0.3,2-0.5,4.2-0.7,4.9c0.6-2.3,3.7-5.8,8.5-5.8
	v20h40.8l0,0v-20c0.6,0,1.2,0.1,1.8,0.2c-0.3,1.5-0.7,2.9-1.2,4.3c0.8-1.5,2.1-2.7,3.7-3.5c1.6,0.8,2.8,2,3.7,3.5
	c-0.5-1.4-0.9-2.9-1.2-4.3c0.6-0.1,1.2-0.2,1.8-0.2v20v-20v20h40.8v-20c4.7,0,7.8,3.4,8.5,5.8c-0.2-0.7-0.5-2.9-0.7-4.9
	c-0.2-1.4-0.4-3-0.6-4.7c-1-5.7-2.4-11.2-4.4-16.6c4-4.1,7.1-9.2,8.9-14.6l74.4-37.3l5.6-2.8l-0.1-6.3l-0.2-11.7v-0.6l-0.1-0.6
	l-9.3-68.7l-0.5-3.4l-2.4-2.4L713.3,806V313.4c-0.1-32.2-6.9-64-20-93.4c-8.6-19.6-19.5-38-32.5-54.9c-0.3-1.8-0.5-4.6-0.6-5.6
	C660.2,145.8,650.8,140.9,644.5,140.9L644.5,140.9z M641.6,1008.8c0.9-0.8,1.7-1.7,2.5-2.7c0.8,0.9,1.6,1.8,2.5,2.7
	c-0.8,2.5-1.7,5.4-2.5,8.2C643.3,1014.2,642.4,1011.3,641.6,1008.8z"/>
<path class="st6" d="M644.5,150.9c0.3,0,5.7,0.1,5.7,8.7c0,1.4,0.8,9.4,1.4,10c17.8,23,51.7,74.4,51.7,143.9v21.1h-83.1v1.1h83.1
	v474.5l57.9,57.1l9.3,68.8l0.2,11.7L692.3,987c0,0-2.1,12.7-12.3,18.1c0,0,5.2,12.7,6.5,21.4c1.2,8.7,1.3,12.5,2.8,12.5h-40.8
	c1.3,0,3.2-7.5,3.8-12.6c0.8-6.4,6.3-21.6,6.3-21.6c-4.9-2.1-8.7-6.3-10.1-11.5h-8.6c-1.5,5.2-5.2,9.4-10.1,11.5
	c0,0,5.5,15.2,6.3,21.6c0.6,5.1,2.5,12.6,3.8,12.6h-40.8c1.5,0,1.6-3.8,2.8-12.5s6.5-21.4,6.5-21.4c-10.2-5.4-12.3-18.1-12.3-18.1
	l-15.1-26.8l-63.2-12.9l0.2-11.9l7.6-56.7l59.5-72.1V313.4c0-69.4,33.5-119.4,49.2-142.9c0,0-0.6-0.3-0.6-1.7s1.2-4,2.6-6.3
	s1.3-7.2,2.3-8.8c1.2-1.8,3.3-2.9,5.4-2.9L644.5,150.9 M639.8,1039.1L639.8,1039.1 M644.5,140.9h-0.9c-5.7,0-11,2.9-14,7.7
	c-1.3,2.3-2.1,4.8-2.3,7.5c-0.1,0.6-0.2,1.4-0.3,1.9c-2.3,4-3.6,7.5-3.7,10.5c-8.1,12.2-19.3,29.7-29,52.4
	c-12.9,30.2-19.5,61.3-19.5,92.5V803l-57.2,69.4l-1.8,2.2l-0.4,2.8l-7.6,56.7l-0.1,0.6v0.6l-0.2,11.9l-0.1,8.3l8.1,1.7l58.8,12
	l12.1,21.5c1.6,6.8,5,13,9.8,18c-2,5.4-3.4,10.9-4.4,16.6c-0.2,1.8-0.5,3.3-0.6,4.7c-0.3,2-0.5,4.2-0.7,4.9c0.6-2.3,3.7-5.8,8.5-5.8
	v20h40.8l0,0v-20c0.6,0,1.2,0.1,1.8,0.2c-0.3,1.5-0.7,2.9-1.2,4.3c0.8-1.5,2.1-2.7,3.7-3.5c1.6,0.8,2.8,2,3.7,3.5
	c-0.5-1.4-0.9-2.9-1.2-4.3c0.6-0.1,1.2-0.2,1.8-0.2v20v-20v20h40.8v-20c4.7,0,7.8,3.4,8.5,5.8c-0.2-0.7-0.5-2.9-0.7-4.9
	c-0.2-1.4-0.4-3-0.6-4.7c-1-5.7-2.4-11.2-4.4-16.6c4-4.1,7.1-9.2,8.9-14.6l74.4-37.3l5.6-2.8l-0.1-6.3l-0.2-11.7v-0.6l-0.1-0.6
	l-9.3-68.7l-0.5-3.4l-2.4-2.4L713.3,806V313.4c-0.1-32.2-6.9-64-20-93.4c-8.6-19.6-19.5-38-32.5-54.9c-0.3-1.8-0.5-4.6-0.6-5.6
	C660.2,145.8,650.8,140.9,644.5,140.9L644.5,140.9z M641.6,1008.8c0.9-0.8,1.7-1.7,2.5-2.7c0.8,0.9,1.6,1.8,2.5,2.7
	c-0.8,2.5-1.7,5.4-2.5,8.2C643.3,1014.2,642.4,1011.3,641.6,1008.8z"/>
<path class="st6" d="M816.4,866.8c-7-9.8-50.3-52.5-68.2-69.3s-25.5-27.5-29-37s-11.1-48.6-14-65.1s-9.2-45.3-10.5-49.2
	s-5.4-26.4-7-35.9s-7.6-41.6-9.2-46.2s-5.9-21.1-10.2-33.5s-10.2-28.7-12-33.5s-6.7-8.7-12-8.7s-10.2,3.9-12,8.7s-7.8,21.1-12,33.5
	s-8.5,28.8-10.2,33.5s-7.6,36.8-9.2,46.2s-5.7,32-7,35.9S586,679,583,695.4s-10.5,55.7-14,65.1s-11.1,20.2-29,37
	s-61.3,59.5-68.3,69.3s-9.2,22-8.7,31.4s0.5,9.4,0.5,11.1v18.3c0,0,54.3,9.4,63.2,10.6s23.6,4.6,25.2,5.5s18.1,2.3,27.3,4.1
	s20.2,3.7,22.9,4.6v34.8l5.3,0.9l0.9,1.8h71.5l0.9-1.8l5.3-0.9v-34.8c2.7-0.9,13.7-2.8,22.9-4.6s25.7-3.2,27.3-4.1
	s16.3-4.3,25.2-5.5s63.2-10.6,63.2-10.6v-18.3c0-1.7,0-1.7,0.5-11.1S823.4,876.7,816.4,866.8z"/>
<path class="st0" d="M678.6,587c-6-28.4-18.5-67.8-18.5-67.8l-9-16.9H637l-9,16.9c0,0-12.5,39.4-18.4,67.8s-6.7,35.8-6.7,38.2v288.9
	c0,10.8,9.7,42.5,9.7,42.5h26.3v-52.4c0-2.2,3.2-2.6,5.3-2.6s5.3,0.4,5.3,2.6v52.5h26.3c0,0,9.7-31.7,9.7-42.5V625.2
	C685.3,622.8,684.5,615.5,678.6,587z M635.7,519.6c0.4-2.2,1.7-3.8,2.9-3.5s1.7,2.2,1.3,4.4s-1.7,3.8-2.9,3.6
	S635.3,521.8,635.7,519.6L635.7,519.6z M640,537.7c-0.5,1-1.7,1.4-2.7,0.9c-1-0.5-1.4-1.7-0.9-2.7c0.4-0.9,1.4-1.3,2.4-1
	C639.9,535.3,640.4,536.6,640,537.7z M644,539.5c-1.3,0.3-2.6-0.6-2.8-1.9c-0.3-1.3,0.6-2.6,1.9-2.8c1.3-0.3,2.6,0.6,2.8,1.9
	c0,0.2,0,0.3,0,0.5C646,538.3,645.2,539.4,644,539.5L644,539.5z M644,524c-1.2,0-2.1-1.8-2.1-4s0.9-4,2.1-4s2.1,1.8,2.1,4
	S645.2,524,644,524L644,524z M650.5,539.5c-1.2,0.6-2.6,0.1-3.2-1.1s-0.1-2.6,1.1-3.2s2.6-0.1,3.2,1.1c0.1,0.1,0.1,0.3,0.2,0.4
	C652.2,537.8,651.7,539,650.5,539.5L650.5,539.5z M651.1,524c-1.1,0.2-2.4-1.3-2.9-3.5s0.1-4.1,1.3-4.4s2.4,1.3,2.9,3.5
	S652.3,523.7,651.1,524L651.1,524z"/>
<polygon class="st6" points="623.1,597 625.4,590.2 632.6,582.9 640,580.5 641.6,570.2 629,575.9 618.1,584.7 615.7,597.9 "/>
<rect x="633.2" y="606.4" class="st6" width="9.8" height="8.8"/>
<path class="st0" d="M601.4,645.1v257.1h-65.2v8.2h-2v-8.1h-69.1v-2.6c0-2.1,3.2-7.8,4.7-11.7s3.7-8,4.4-10.8s7.6-9.2,11.3-12.7
	s91.5-95.7,91.5-95.7S592.2,677.8,601.4,645.1z"/>
<path class="st0" d="M601.4,913.4v37.9c0,0-17.8-4-23.1-4.8s-23-2.9-25.4-3.7s-15.1-4.2-16.9-4.4v-28L601.4,913.4z"/>
<path class="st0" d="M534.2,910.4v27.8c0,0-24.9-3.4-37.5-5.8s-30.1-5.6-32.3-5.8v-20.3L534.2,910.4z"/>
<polygon class="st6" points="665,597 662.8,590.2 655.5,582.9 648.2,580.5 646.5,570.2 659.1,575.9 670,584.7 672.5,597.9 "/>
<rect x="645.1" y="606.4" class="st6" width="9.8" height="8.8"/>
<path class="st0" d="M686.7,645.1v257.1h65.2v8.2h2v-8.1H823v-2.6c0-2.1-3.2-7.8-4.7-11.7s-3.7-8-4.4-10.8s-7.6-9.2-11.3-12.7
	s-91.5-95.7-91.5-95.7S695.9,677.8,686.7,645.1z"/>
<path class="st0" d="M686.7,913.4v37.9c0,0,17.8-4,23.1-4.8s23-2.9,25.4-3.7s15.1-4.2,16.9-4.4v-28L686.7,913.4z"/>
<path class="st0" d="M753.9,910.4v27.8c0,0,24.9-3.4,37.5-5.8s30.1-5.6,32.3-5.8v-20.3L753.9,910.4z"/>
<path class="st0" d="M612.2,958.3c-3.9-12.3-7-24.7-9.4-37.4v65.2h20.6V959L612.2,958.3z M607,958.5c0.9,0,1.7,0.8,1.7,1.7
	s-0.8,1.7-1.7,1.7s-1.7-0.8-1.7-1.7v0C605.3,959.3,606,958.5,607,958.5C607,958.5,607,958.5,607,958.5L607,958.5z M607,965
	c0.9,0,1.7,0.8,1.7,1.7s-0.8,1.7-1.7,1.7s-1.7-0.8-1.7-1.7v0C605.3,965.8,606,965,607,965C607,965,607,965,607,965L607,965z
	 M604.9,982.8c-0.6,0-1-0.4-1-1s0.4-1,1-1s1,0.4,1,1C605.9,982.3,605.5,982.8,604.9,982.8C604.9,982.8,604.9,982.8,604.9,982.8
	L604.9,982.8z M605.3,973.2c0-0.9,0.8-1.7,1.8-1.7c0.9,0,1.7,0.8,1.7,1.8c0,0.9-0.8,1.6-1.7,1.7C606.1,975,605.3,974.3,605.3,973.2
	C605.2,973.3,605.2,973.3,605.3,973.2L605.3,973.2z M609.1,982.3c-0.6,0-1-0.4-1-1s0.4-1,1-1s1,0.4,1,1
	C610.1,981.9,609.7,982.3,609.1,982.3C609.1,982.3,609.1,982.3,609.1,982.3L609.1,982.3z"/>
<path class="st0" d="M676,958.3l-11.3,0.7v27.1h20.6v-65.2C683,933.6,679.8,946,676,958.3z M681.2,958.5c0.9,0,1.7,0.8,1.7,1.7
	s-0.8,1.7-1.7,1.7s-1.7-0.8-1.7-1.7v0C679.4,959.3,680.2,958.5,681.2,958.5L681.2,958.5z M681.2,965c0.9,0,1.7,0.8,1.7,1.7
	s-0.8,1.7-1.7,1.7s-1.7-0.8-1.7-1.7v0C679.4,965.8,680.2,965,681.2,965L681.2,965z M679,982.3c-0.6,0-1-0.4-1-1s0.4-1,1-1s1,0.4,1,1
	S679.6,982.3,679,982.3z M679.4,973.2c0-0.9,0.8-1.7,1.7-1.7s1.7,0.8,1.7,1.7s-0.8,1.7-1.7,1.7h0
	C680.2,974.9,679.4,974.2,679.4,973.2L679.4,973.2z M683.2,982.8c-0.6,0-1-0.4-1-1s0.4-1,1-1s1,0.4,1,1S683.8,982.8,683.2,982.8z"/>
<ellipse transform="matrix(0.9778 -0.2096 0.2096 0.9778 -192.2354 155.6226)" class="st0" cx="638" cy="984.7" rx="0.8" ry="1.2"/>
<polygon class="st0" points="624.7,986.1 635.1,986.1 635.1,983.5 624.7,977.7 "/>
<path class="st0" d="M640.2,905.5c0,0,0.7,1.3,1.6,1.3v83.1h-1.2L640.2,905.5z"/>
<ellipse transform="matrix(0.2096 -0.9778 0.9778 0.2096 -449.0005 1413.9041)" class="st0" cx="650.1" cy="984.7" rx="1.2" ry="0.8"/>
<polygon class="st0" points="663.4,986.1 653,986.1 653,983.5 663.4,977.7 "/>
<path class="st0" d="M648,905.5c0,0-0.7,1.3-1.6,1.3v83.1h1.2L648,905.5z"/>
<use xlink:href="#Новый_символ_2"  width="62.9" height="62.9" x="-31.5" y="-31.5" transform="matrix(1.62 0 0 1.62 869.8933 593.9933)" style="overflow:visible;"/>
<use xlink:href="#Новый_символ_2"  width="62.9" height="62.9" x="-31.5" y="-31.5" transform="matrix(1.62 0 0 1.62 318.0233 674.3633)" style="overflow:visible;"/>
<use xlink:href="#Новый_символ_2"  width="62.9" height="62.9" x="-31.5" y="-31.5" transform="matrix(0.57 0 0 0.57 869.5251 694.095)" style="overflow:visible;"/>
<use xlink:href="#Новый_символ_2"  width="62.9" height="62.9" x="-31.5" y="-31.5" transform="matrix(0.57 0 0 0.57 447.0251 641.7651)" style="overflow:visible;"/>
<use xlink:href="#Новый_символ_2"  width="62.9" height="62.9" x="-31.5" y="-31.5" transform="matrix(0.46 0 0 0.46 273.0939 788.4239)" style="overflow:visible;"/>
<use xlink:href="#Новый_символ_2"  width="62.9" height="62.9" x="-31.5" y="-31.5" transform="matrix(0.57 0 0 0.57 342.9951 547.545)" style="overflow:visible;"/>
<use xlink:href="#Новый_символ_2"  width="62.9" height="62.9" x="-31.5" y="-31.5" transform="matrix(0.57 0 0 0.57 412.2851 436.9151)" style="overflow:visible;"/>
<use xlink:href="#Новый_символ_2"  width="62.9" height="62.9" x="-31.5" y="-31.5" transform="matrix(0.57 0 0 0.57 995.9951 746.4551)" style="overflow:visible;"/>
<use xlink:href="#Новый_символ_2"  width="62.9" height="62.9" x="-31.5" y="-31.5" transform="matrix(0.71 0 0 0.71 998.3502 658.5701)" style="overflow:visible;"/>
<use xlink:href="#Новый_символ_2"  width="62.9" height="62.9" x="-31.5" y="-31.5" transform="matrix(0.71 0 0 0.71 922.8602 489.4901)" style="overflow:visible;"/>
<use xlink:href="#Новый_символ_2"  width="62.9" height="62.9" x="-31.5" y="-31.5" transform="matrix(1.11 0 0 1.11 832.0261 422.8661)" style="overflow:visible;"/>
<use xlink:href="#Новый_символ_2"  width="62.9" height="62.9" x="-31.5" y="-31.5" transform="matrix(1.11 0 0 1.11 448.2261 539.5862)" style="overflow:visible;"/>
</svg>
