<svg width="1931" height="244" viewBox="0 0 1931 244" fill="none" xmlns="http://www.w3.org/2000/svg">
<path fill-rule="evenodd" clip-rule="evenodd" d="M1931 67.2018V244H0V56.912C49.8764 40.1141 103.36 31 159 31C292.072 31 412.805 83.1324 501.369 167.83C530.03 150.797 563.606 141 599.5 141C654.788 141 704.576 164.244 739.375 201.37C755.063 195.321 772.138 192 790 192C795.742 192 801.403 192.343 806.963 193.01C841.158 160.788 887.488 141 938.5 141C965.516 141 991.218 146.55 1014.5 156.557C1028.51 150.533 1043.41 146.124 1058.93 143.569C1107.91 105.034 1169.97 82 1237.5 82C1297.66 82 1353.49 100.283 1399.58 131.521C1428.15 122.102 1458.72 117 1490.5 117C1497.96 117 1505.36 117.281 1512.68 117.834C1564.68 46.4753 1649.58 0 1745.5 0C1816.25 0 1881.02 25.2897 1931 67.2018Z" fill="white"/>
</svg>
